%TF.GenerationSoftware,KiCad,Pcbnew,9.0.7*%
%TF.CreationDate,2026-03-16T20:08:15+03:00*%
%TF.ProjectId,ch32_v303cb,63683332-5f76-4333-9033-63622e6b6963,rev?*%
%TF.SameCoordinates,PX7368e76PY6657345*%
%TF.FileFunction,Legend,Top*%
%TF.FilePolarity,Positive*%
%FSLAX46Y46*%
G04 Gerber Fmt 4.6, Leading zero omitted, Abs format (unit mm)*
G04 Created by KiCad (PCBNEW 9.0.7) date 2026-03-16 20:08:15*
%MOMM*%
%LPD*%
G01*
G04 APERTURE LIST*
G04 Aperture macros list*
%AMRoundRect*
0 Rectangle with rounded corners*
0 $1 Rounding radius*
0 $2 $3 $4 $5 $6 $7 $8 $9 X,Y pos of 4 corners*
0 Add a 4 corners polygon primitive as box body*
4,1,4,$2,$3,$4,$5,$6,$7,$8,$9,$2,$3,0*
0 Add four circle primitives for the rounded corners*
1,1,$1+$1,$2,$3*
1,1,$1+$1,$4,$5*
1,1,$1+$1,$6,$7*
1,1,$1+$1,$8,$9*
0 Add four rect primitives between the rounded corners*
20,1,$1+$1,$2,$3,$4,$5,0*
20,1,$1+$1,$4,$5,$6,$7,0*
20,1,$1+$1,$6,$7,$8,$9,0*
20,1,$1+$1,$8,$9,$2,$3,0*%
G04 Aperture macros list end*
%ADD10C,0.100000*%
%ADD11C,0.150000*%
%ADD12C,0.400000*%
%ADD13C,0.120000*%
%ADD14C,0.200000*%
%ADD15RoundRect,0.074942X-0.074942X0.329149X-0.074942X-0.329149X0.074942X-0.329149X0.074942X0.329149X0*%
%ADD16RoundRect,0.074942X-0.329149X-0.074942X0.329149X-0.074942X0.329149X0.074942X-0.329149X0.074942X0*%
%ADD17RoundRect,0.074942X0.074942X-0.329149X0.074942X0.329149X-0.074942X0.329149X-0.074942X-0.329149X0*%
%ADD18RoundRect,0.074942X0.329149X0.074942X-0.329149X0.074942X-0.329149X-0.074942X0.329149X-0.074942X0*%
%ADD19RoundRect,0.187500X-0.187500X-0.287500X0.187500X-0.287500X0.187500X0.287500X-0.187500X0.287500X0*%
%ADD20RoundRect,0.162500X-0.162500X-0.312500X0.162500X-0.312500X0.162500X0.312500X-0.162500X0.312500X0*%
%ADD21RoundRect,0.162500X0.367500X0.162500X-0.367500X0.162500X-0.367500X-0.162500X0.367500X-0.162500X0*%
%ADD22RoundRect,0.162500X-0.312500X0.162500X-0.312500X-0.162500X0.312500X-0.162500X0.312500X0.162500X0*%
%ADD23RoundRect,0.218750X-0.256250X0.218750X-0.256250X-0.218750X0.256250X-0.218750X0.256250X0.218750X0*%
%ADD24RoundRect,0.225000X0.525000X-1.275000X0.525000X1.275000X-0.525000X1.275000X-0.525000X-1.275000X0*%
%ADD25RoundRect,0.250000X0.400000X0.250000X-0.400000X0.250000X-0.400000X-0.250000X0.400000X-0.250000X0*%
%ADD26RoundRect,0.187500X0.187500X0.287500X-0.187500X0.287500X-0.187500X-0.287500X0.187500X-0.287500X0*%
%ADD27R,1.350000X1.350000*%
%ADD28O,1.350000X1.350000*%
%ADD29RoundRect,0.225000X1.275000X0.525000X-1.275000X0.525000X-1.275000X-0.525000X1.275000X-0.525000X0*%
%ADD30RoundRect,0.187500X0.287500X-0.187500X0.287500X0.187500X-0.287500X0.187500X-0.287500X-0.187500X0*%
%ADD31RoundRect,0.218750X0.218750X0.256250X-0.218750X0.256250X-0.218750X-0.256250X0.218750X-0.256250X0*%
%ADD32RoundRect,0.162500X0.162500X0.312500X-0.162500X0.312500X-0.162500X-0.312500X0.162500X-0.312500X0*%
%ADD33RoundRect,0.162500X0.335876X0.106066X0.106066X0.335876X-0.335876X-0.106066X-0.106066X-0.335876X0*%
%ADD34RoundRect,0.187500X-0.287500X0.187500X-0.287500X-0.187500X0.287500X-0.187500X0.287500X0.187500X0*%
%ADD35RoundRect,0.225000X-1.275000X-0.525000X1.275000X-0.525000X1.275000X0.525000X-1.275000X0.525000X0*%
%ADD36RoundRect,0.225000X-0.525000X1.275000X-0.525000X-1.275000X0.525000X-1.275000X0.525000X1.275000X0*%
%ADD37C,0.750000*%
G04 APERTURE END LIST*
D10*
X30736155Y1491084D02*
X30736155Y991084D01*
X30736155Y1491084D02*
X30727014Y1478514D01*
X30717926Y1466051D01*
X30709172Y1454081D01*
X30700466Y1442211D01*
X30692057Y1430781D01*
X30683692Y1419444D01*
X30675595Y1408505D01*
X30667537Y1397653D01*
X30659721Y1387162D01*
X30651943Y1376754D01*
X30644384Y1366675D01*
X30636860Y1356675D01*
X30629538Y1346977D01*
X30622247Y1337354D01*
X30615142Y1328010D01*
X30608066Y1318738D01*
X30601162Y1309724D01*
X30594285Y1300780D01*
X30587567Y1292075D01*
X30580875Y1283437D01*
X30574331Y1275022D01*
X30567810Y1266671D01*
X30561428Y1258530D01*
X30555068Y1250450D01*
X30548837Y1242567D01*
X30542628Y1234744D01*
X30536540Y1227105D01*
X30530471Y1219523D01*
X30524516Y1212117D01*
X30518580Y1204765D01*
X30512752Y1197579D01*
X30506940Y1190446D01*
X30501231Y1183470D01*
X30495537Y1176545D01*
X30489940Y1169769D01*
X30484358Y1163043D01*
X30478867Y1156458D01*
X30473390Y1149922D01*
X30467999Y1143520D01*
X30462623Y1137166D01*
X30457328Y1130940D01*
X30452046Y1124760D01*
X30446842Y1118702D01*
X30441650Y1112689D01*
X30436532Y1106793D01*
X30431425Y1100941D01*
X30426390Y1095200D01*
X30421365Y1089502D01*
X30416407Y1083911D01*
X30411460Y1078362D01*
X30406577Y1072915D01*
X30401704Y1067509D01*
X30396892Y1062201D01*
X30392089Y1056934D01*
X30387345Y1051760D01*
X30382610Y1046626D01*
X30377931Y1041582D01*
X30373260Y1036577D01*
X30368643Y1031659D01*
X30364033Y1026778D01*
X30359475Y1021981D01*
X30354925Y1017221D01*
X30350423Y1012542D01*
X30345929Y1007899D01*
X30341482Y1003334D01*
X30337041Y998804D01*
X30332646Y994349D01*
X30328257Y989929D01*
X30323912Y985581D01*
X30319572Y981268D01*
X30315274Y977024D01*
X30310981Y972814D01*
X30306729Y968672D01*
X30302482Y964562D01*
X30298273Y960518D01*
X30294069Y956506D01*
X30289902Y952557D01*
X30285740Y948640D01*
X30281613Y944784D01*
X30277490Y940959D01*
X30273402Y937194D01*
X30269317Y933459D01*
X30265265Y929782D01*
X30261217Y926135D01*
X30257200Y922544D01*
X30253187Y918982D01*
X30249204Y915474D01*
X30245224Y911995D01*
X30241273Y908569D01*
X30237325Y905172D01*
X30233405Y901825D01*
X30229488Y898507D01*
X30225598Y895238D01*
X30221709Y891997D01*
X30217847Y888804D01*
X30213987Y885638D01*
X30210152Y882519D01*
X30206318Y879427D01*
X30202508Y876380D01*
X30198700Y873360D01*
X30194915Y870384D01*
X30191131Y867434D01*
X30187370Y864528D01*
X30183609Y861647D01*
X30179870Y858808D01*
X30176131Y855994D01*
X30172413Y853221D01*
X30168695Y850473D01*
X30164997Y847765D01*
X30161299Y845082D01*
X30157621Y842438D01*
X30153942Y839818D01*
X30150281Y837235D01*
X30146620Y834677D01*
X30142976Y832155D01*
X30139332Y829658D01*
X30135704Y827196D01*
X30132076Y824758D01*
X30128464Y822355D01*
X30124851Y819975D01*
X30121253Y817629D01*
X30117653Y815307D01*
X30114069Y813017D01*
X30110483Y810751D01*
X30106911Y808517D01*
X30103337Y806306D01*
X30099776Y804126D01*
X30096214Y801969D01*
X30092664Y799843D01*
X30089113Y797739D01*
X30085573Y795665D01*
X30082031Y793613D01*
X30078500Y791591D01*
X30074967Y789591D01*
X30071444Y787619D01*
X30067919Y785670D01*
X30064404Y783748D01*
X30060886Y781848D01*
X30057377Y779976D01*
X30053866Y778125D01*
X30050363Y776301D01*
X30046858Y774498D01*
X30043360Y772722D01*
X30039859Y770966D01*
X30036366Y769237D01*
X30032869Y767529D01*
X30029379Y765846D01*
X30025886Y764183D01*
X30022398Y762546D01*
X30018908Y760929D01*
X30015422Y759337D01*
X30011933Y757765D01*
X30008449Y756217D01*
X30004961Y754690D01*
X30001477Y753186D01*
X29997990Y751702D01*
X29994506Y750242D01*
X29991018Y748801D01*
X29987532Y747384D01*
X29984043Y745986D01*
X29980556Y744611D01*
X29977065Y743256D01*
X29973575Y741922D01*
X29970081Y740609D01*
X29966588Y739317D01*
X29963090Y738045D01*
X29959593Y736795D01*
X29956092Y735564D01*
X29952590Y734354D01*
X29949083Y733164D01*
X29945575Y731994D01*
X29942063Y730844D01*
X29938549Y729715D01*
X29935030Y728605D01*
X29931509Y727515D01*
X29927983Y726445D01*
X29924454Y725394D01*
X29920920Y724363D01*
X29917382Y723352D01*
X29913839Y722360D01*
X29910292Y721388D01*
X29906740Y720435D01*
X29903183Y719502D01*
X29899620Y718587D01*
X29892478Y716816D01*
X29885313Y715122D01*
X29878122Y713504D01*
X29870905Y711962D01*
X29863659Y710496D01*
X29856384Y709105D01*
X29849076Y707790D01*
X29841736Y706550D01*
X29834360Y705385D01*
X29826948Y704296D01*
X29819498Y703282D01*
X29812008Y702343D01*
X29804476Y701480D01*
X29796900Y700692D01*
X29789279Y699980D01*
X29781610Y699344D01*
X29773893Y698784D01*
X29766125Y698301D01*
X29758303Y697895D01*
X29750427Y697566D01*
X29742494Y697315D01*
X29734503Y697142D01*
X29726450Y697048D01*
X29718334Y697033D01*
X29710153Y697098D01*
X29701905Y697244D01*
X29693588Y697471D01*
X29685198Y697780D01*
X29676734Y698172D01*
X29668194Y698647D01*
X29659574Y699208D01*
X29650873Y699853D01*
X29642088Y700586D01*
X29633217Y701406D01*
X29624255Y702314D01*
X29615202Y703312D01*
X29606054Y704402D01*
X29596808Y705584D01*
X29587461Y706859D01*
X29578009Y708229D01*
X29568451Y709696D01*
X29558783Y711261D01*
X29549000Y712925D01*
X29539100Y714691D01*
X29529080Y716559D01*
X29518935Y718532D01*
X29508661Y720612D01*
X29498255Y722800D01*
X29487713Y725098D01*
X29477030Y727510D01*
X29466202Y730036D01*
X29455225Y732679D01*
X29445356Y735124D01*
X30266309Y1320074D02*
X30736155Y1491084D01*
X29597600Y16322197D02*
X29669028Y16284102D01*
X29669028Y16284102D02*
X29692838Y16246006D01*
X29692838Y16246006D02*
X29716647Y16169816D01*
X29716647Y16169816D02*
X29716647Y16055530D01*
X29716647Y16055530D02*
X29692838Y15979340D01*
X29692838Y15979340D02*
X29669028Y15941244D01*
X29669028Y15941244D02*
X29621409Y15903149D01*
X29621409Y15903149D02*
X29430933Y15903149D01*
X29430933Y15903149D02*
X29430933Y16703149D01*
X29430933Y16703149D02*
X29597600Y16703149D01*
X29597600Y16703149D02*
X29645219Y16665054D01*
X29645219Y16665054D02*
X29669028Y16626959D01*
X29669028Y16626959D02*
X29692838Y16550768D01*
X29692838Y16550768D02*
X29692838Y16474578D01*
X29692838Y16474578D02*
X29669028Y16398387D01*
X29669028Y16398387D02*
X29645219Y16360292D01*
X29645219Y16360292D02*
X29597600Y16322197D01*
X29597600Y16322197D02*
X29430933Y16322197D01*
X29883314Y16703149D02*
X30192838Y16703149D01*
X30192838Y16703149D02*
X30026171Y16398387D01*
X30026171Y16398387D02*
X30097600Y16398387D01*
X30097600Y16398387D02*
X30145219Y16360292D01*
X30145219Y16360292D02*
X30169028Y16322197D01*
X30169028Y16322197D02*
X30192838Y16246006D01*
X30192838Y16246006D02*
X30192838Y16055530D01*
X30192838Y16055530D02*
X30169028Y15979340D01*
X30169028Y15979340D02*
X30145219Y15941244D01*
X30145219Y15941244D02*
X30097600Y15903149D01*
X30097600Y15903149D02*
X29954743Y15903149D01*
X29954743Y15903149D02*
X29907124Y15941244D01*
X29907124Y15941244D02*
X29883314Y15979340D01*
X7942839Y16131721D02*
X8180934Y16131721D01*
X7895220Y15903149D02*
X8061886Y16703149D01*
X8061886Y16703149D02*
X8228553Y15903149D01*
X8490457Y16703149D02*
X8538076Y16703149D01*
X8538076Y16703149D02*
X8585695Y16665054D01*
X8585695Y16665054D02*
X8609505Y16626959D01*
X8609505Y16626959D02*
X8633314Y16550768D01*
X8633314Y16550768D02*
X8657124Y16398387D01*
X8657124Y16398387D02*
X8657124Y16207911D01*
X8657124Y16207911D02*
X8633314Y16055530D01*
X8633314Y16055530D02*
X8609505Y15979340D01*
X8609505Y15979340D02*
X8585695Y15941244D01*
X8585695Y15941244D02*
X8538076Y15903149D01*
X8538076Y15903149D02*
X8490457Y15903149D01*
X8490457Y15903149D02*
X8442838Y15941244D01*
X8442838Y15941244D02*
X8419029Y15979340D01*
X8419029Y15979340D02*
X8395219Y16055530D01*
X8395219Y16055530D02*
X8371410Y16207911D01*
X8371410Y16207911D02*
X8371410Y16398387D01*
X8371410Y16398387D02*
X8395219Y16550768D01*
X8395219Y16550768D02*
X8419029Y16626959D01*
X8419029Y16626959D02*
X8442838Y16665054D01*
X8442838Y16665054D02*
X8490457Y16703149D01*
X28903085Y15273854D02*
X29284038Y15440520D01*
X28903085Y15559568D02*
X29703085Y15559568D01*
X29703085Y15559568D02*
X29703085Y15369092D01*
X29703085Y15369092D02*
X29664990Y15321473D01*
X29664990Y15321473D02*
X29626895Y15297663D01*
X29626895Y15297663D02*
X29550704Y15273854D01*
X29550704Y15273854D02*
X29436419Y15273854D01*
X29436419Y15273854D02*
X29360228Y15297663D01*
X29360228Y15297663D02*
X29322133Y15321473D01*
X29322133Y15321473D02*
X29284038Y15369092D01*
X29284038Y15369092D02*
X29284038Y15559568D01*
X28941181Y15083377D02*
X28903085Y15011949D01*
X28903085Y15011949D02*
X28903085Y14892901D01*
X28903085Y14892901D02*
X28941181Y14845282D01*
X28941181Y14845282D02*
X28979276Y14821473D01*
X28979276Y14821473D02*
X29055466Y14797663D01*
X29055466Y14797663D02*
X29131657Y14797663D01*
X29131657Y14797663D02*
X29207847Y14821473D01*
X29207847Y14821473D02*
X29245942Y14845282D01*
X29245942Y14845282D02*
X29284038Y14892901D01*
X29284038Y14892901D02*
X29322133Y14988139D01*
X29322133Y14988139D02*
X29360228Y15035758D01*
X29360228Y15035758D02*
X29398323Y15059568D01*
X29398323Y15059568D02*
X29474514Y15083377D01*
X29474514Y15083377D02*
X29550704Y15083377D01*
X29550704Y15083377D02*
X29626895Y15059568D01*
X29626895Y15059568D02*
X29664990Y15035758D01*
X29664990Y15035758D02*
X29703085Y14988139D01*
X29703085Y14988139D02*
X29703085Y14869092D01*
X29703085Y14869092D02*
X29664990Y14797663D01*
X29703085Y14654806D02*
X29703085Y14369092D01*
X28903085Y14511949D02*
X29703085Y14511949D01*
X11559505Y16322197D02*
X11630933Y16284102D01*
X11630933Y16284102D02*
X11654743Y16246006D01*
X11654743Y16246006D02*
X11678552Y16169816D01*
X11678552Y16169816D02*
X11678552Y16055530D01*
X11678552Y16055530D02*
X11654743Y15979340D01*
X11654743Y15979340D02*
X11630933Y15941244D01*
X11630933Y15941244D02*
X11583314Y15903149D01*
X11583314Y15903149D02*
X11392838Y15903149D01*
X11392838Y15903149D02*
X11392838Y16703149D01*
X11392838Y16703149D02*
X11559505Y16703149D01*
X11559505Y16703149D02*
X11607124Y16665054D01*
X11607124Y16665054D02*
X11630933Y16626959D01*
X11630933Y16626959D02*
X11654743Y16550768D01*
X11654743Y16550768D02*
X11654743Y16474578D01*
X11654743Y16474578D02*
X11630933Y16398387D01*
X11630933Y16398387D02*
X11607124Y16360292D01*
X11607124Y16360292D02*
X11559505Y16322197D01*
X11559505Y16322197D02*
X11392838Y16322197D01*
X12154743Y15903149D02*
X11869029Y15903149D01*
X12011886Y15903149D02*
X12011886Y16703149D01*
X12011886Y16703149D02*
X11964267Y16588864D01*
X11964267Y16588864D02*
X11916648Y16512673D01*
X11916648Y16512673D02*
X11869029Y16474578D01*
X12630933Y15903149D02*
X12345219Y15903149D01*
X12488076Y15903149D02*
X12488076Y16703149D01*
X12488076Y16703149D02*
X12440457Y16588864D01*
X12440457Y16588864D02*
X12392838Y16512673D01*
X12392838Y16512673D02*
X12345219Y16474578D01*
X27099029Y7021244D02*
X27170457Y6983149D01*
X27170457Y6983149D02*
X27289505Y6983149D01*
X27289505Y6983149D02*
X27337124Y7021244D01*
X27337124Y7021244D02*
X27360933Y7059340D01*
X27360933Y7059340D02*
X27384743Y7135530D01*
X27384743Y7135530D02*
X27384743Y7211721D01*
X27384743Y7211721D02*
X27360933Y7287911D01*
X27360933Y7287911D02*
X27337124Y7326006D01*
X27337124Y7326006D02*
X27289505Y7364102D01*
X27289505Y7364102D02*
X27194267Y7402197D01*
X27194267Y7402197D02*
X27146648Y7440292D01*
X27146648Y7440292D02*
X27122838Y7478387D01*
X27122838Y7478387D02*
X27099029Y7554578D01*
X27099029Y7554578D02*
X27099029Y7630768D01*
X27099029Y7630768D02*
X27122838Y7706959D01*
X27122838Y7706959D02*
X27146648Y7745054D01*
X27146648Y7745054D02*
X27194267Y7783149D01*
X27194267Y7783149D02*
X27313314Y7783149D01*
X27313314Y7783149D02*
X27384743Y7745054D01*
X27551409Y7783149D02*
X27670457Y6983149D01*
X27670457Y6983149D02*
X27765695Y7554578D01*
X27765695Y7554578D02*
X27860933Y6983149D01*
X27860933Y6983149D02*
X27979981Y7783149D01*
X28456171Y7059340D02*
X28432362Y7021244D01*
X28432362Y7021244D02*
X28360933Y6983149D01*
X28360933Y6983149D02*
X28313314Y6983149D01*
X28313314Y6983149D02*
X28241886Y7021244D01*
X28241886Y7021244D02*
X28194267Y7097435D01*
X28194267Y7097435D02*
X28170457Y7173625D01*
X28170457Y7173625D02*
X28146648Y7326006D01*
X28146648Y7326006D02*
X28146648Y7440292D01*
X28146648Y7440292D02*
X28170457Y7592673D01*
X28170457Y7592673D02*
X28194267Y7668864D01*
X28194267Y7668864D02*
X28241886Y7745054D01*
X28241886Y7745054D02*
X28313314Y7783149D01*
X28313314Y7783149D02*
X28360933Y7783149D01*
X28360933Y7783149D02*
X28432362Y7745054D01*
X28432362Y7745054D02*
X28456171Y7706959D01*
X28908552Y6983149D02*
X28670457Y6983149D01*
X28670457Y6983149D02*
X28670457Y7783149D01*
X29075219Y6983149D02*
X29075219Y7783149D01*
X29360933Y6983149D02*
X29146648Y7440292D01*
X29360933Y7783149D02*
X29075219Y7326006D01*
X24197600Y16322197D02*
X24269028Y16284102D01*
X24269028Y16284102D02*
X24292838Y16246006D01*
X24292838Y16246006D02*
X24316647Y16169816D01*
X24316647Y16169816D02*
X24316647Y16055530D01*
X24316647Y16055530D02*
X24292838Y15979340D01*
X24292838Y15979340D02*
X24269028Y15941244D01*
X24269028Y15941244D02*
X24221409Y15903149D01*
X24221409Y15903149D02*
X24030933Y15903149D01*
X24030933Y15903149D02*
X24030933Y16703149D01*
X24030933Y16703149D02*
X24197600Y16703149D01*
X24197600Y16703149D02*
X24245219Y16665054D01*
X24245219Y16665054D02*
X24269028Y16626959D01*
X24269028Y16626959D02*
X24292838Y16550768D01*
X24292838Y16550768D02*
X24292838Y16474578D01*
X24292838Y16474578D02*
X24269028Y16398387D01*
X24269028Y16398387D02*
X24245219Y16360292D01*
X24245219Y16360292D02*
X24197600Y16322197D01*
X24197600Y16322197D02*
X24030933Y16322197D01*
X24602362Y16360292D02*
X24554743Y16398387D01*
X24554743Y16398387D02*
X24530933Y16436483D01*
X24530933Y16436483D02*
X24507124Y16512673D01*
X24507124Y16512673D02*
X24507124Y16550768D01*
X24507124Y16550768D02*
X24530933Y16626959D01*
X24530933Y16626959D02*
X24554743Y16665054D01*
X24554743Y16665054D02*
X24602362Y16703149D01*
X24602362Y16703149D02*
X24697600Y16703149D01*
X24697600Y16703149D02*
X24745219Y16665054D01*
X24745219Y16665054D02*
X24769028Y16626959D01*
X24769028Y16626959D02*
X24792838Y16550768D01*
X24792838Y16550768D02*
X24792838Y16512673D01*
X24792838Y16512673D02*
X24769028Y16436483D01*
X24769028Y16436483D02*
X24745219Y16398387D01*
X24745219Y16398387D02*
X24697600Y16360292D01*
X24697600Y16360292D02*
X24602362Y16360292D01*
X24602362Y16360292D02*
X24554743Y16322197D01*
X24554743Y16322197D02*
X24530933Y16284102D01*
X24530933Y16284102D02*
X24507124Y16207911D01*
X24507124Y16207911D02*
X24507124Y16055530D01*
X24507124Y16055530D02*
X24530933Y15979340D01*
X24530933Y15979340D02*
X24554743Y15941244D01*
X24554743Y15941244D02*
X24602362Y15903149D01*
X24602362Y15903149D02*
X24697600Y15903149D01*
X24697600Y15903149D02*
X24745219Y15941244D01*
X24745219Y15941244D02*
X24769028Y15979340D01*
X24769028Y15979340D02*
X24792838Y16055530D01*
X24792838Y16055530D02*
X24792838Y16207911D01*
X24792838Y16207911D02*
X24769028Y16284102D01*
X24769028Y16284102D02*
X24745219Y16322197D01*
X24745219Y16322197D02*
X24697600Y16360292D01*
X27100457Y4481260D02*
X27171885Y4443165D01*
X27171885Y4443165D02*
X27290933Y4443165D01*
X27290933Y4443165D02*
X27338552Y4481260D01*
X27338552Y4481260D02*
X27362361Y4519356D01*
X27362361Y4519356D02*
X27386171Y4595546D01*
X27386171Y4595546D02*
X27386171Y4671737D01*
X27386171Y4671737D02*
X27362361Y4747927D01*
X27362361Y4747927D02*
X27338552Y4786022D01*
X27338552Y4786022D02*
X27290933Y4824118D01*
X27290933Y4824118D02*
X27195695Y4862213D01*
X27195695Y4862213D02*
X27148076Y4900308D01*
X27148076Y4900308D02*
X27124266Y4938403D01*
X27124266Y4938403D02*
X27100457Y5014594D01*
X27100457Y5014594D02*
X27100457Y5090784D01*
X27100457Y5090784D02*
X27124266Y5166975D01*
X27124266Y5166975D02*
X27148076Y5205070D01*
X27148076Y5205070D02*
X27195695Y5243165D01*
X27195695Y5243165D02*
X27314742Y5243165D01*
X27314742Y5243165D02*
X27386171Y5205070D01*
X27552837Y5243165D02*
X27671885Y4443165D01*
X27671885Y4443165D02*
X27767123Y5014594D01*
X27767123Y5014594D02*
X27862361Y4443165D01*
X27862361Y4443165D02*
X27981409Y5243165D01*
X28171885Y4443165D02*
X28171885Y5243165D01*
X28171885Y5243165D02*
X28290933Y5243165D01*
X28290933Y5243165D02*
X28362361Y5205070D01*
X28362361Y5205070D02*
X28409980Y5128880D01*
X28409980Y5128880D02*
X28433790Y5052689D01*
X28433790Y5052689D02*
X28457599Y4900308D01*
X28457599Y4900308D02*
X28457599Y4786022D01*
X28457599Y4786022D02*
X28433790Y4633641D01*
X28433790Y4633641D02*
X28409980Y4557451D01*
X28409980Y4557451D02*
X28362361Y4481260D01*
X28362361Y4481260D02*
X28290933Y4443165D01*
X28290933Y4443165D02*
X28171885Y4443165D01*
X28671885Y4443165D02*
X28671885Y5243165D01*
X29005218Y5243165D02*
X29100456Y5243165D01*
X29100456Y5243165D02*
X29148075Y5205070D01*
X29148075Y5205070D02*
X29195694Y5128880D01*
X29195694Y5128880D02*
X29219504Y4976499D01*
X29219504Y4976499D02*
X29219504Y4709832D01*
X29219504Y4709832D02*
X29195694Y4557451D01*
X29195694Y4557451D02*
X29148075Y4481260D01*
X29148075Y4481260D02*
X29100456Y4443165D01*
X29100456Y4443165D02*
X29005218Y4443165D01*
X29005218Y4443165D02*
X28957599Y4481260D01*
X28957599Y4481260D02*
X28909980Y4557451D01*
X28909980Y4557451D02*
X28886171Y4709832D01*
X28886171Y4709832D02*
X28886171Y4976499D01*
X28886171Y4976499D02*
X28909980Y5128880D01*
X28909980Y5128880D02*
X28957599Y5205070D01*
X28957599Y5205070D02*
X29005218Y5243165D01*
X4668304Y12042903D02*
X4668304Y12280998D01*
X4896876Y11995284D02*
X4096876Y12161950D01*
X4096876Y12161950D02*
X4896876Y12328617D01*
X4363542Y12709569D02*
X4896876Y12709569D01*
X4058781Y12590521D02*
X4630209Y12471474D01*
X4630209Y12471474D02*
X4630209Y12780997D01*
X5980775Y16131721D02*
X6218870Y16131721D01*
X5933156Y15903149D02*
X6099822Y16703149D01*
X6099822Y16703149D02*
X6266489Y15903149D01*
X6695060Y15903149D02*
X6409346Y15903149D01*
X6552203Y15903149D02*
X6552203Y16703149D01*
X6552203Y16703149D02*
X6504584Y16588864D01*
X6504584Y16588864D02*
X6456965Y16512673D01*
X6456965Y16512673D02*
X6409346Y16474578D01*
X1699505Y16322197D02*
X1770933Y16284102D01*
X1770933Y16284102D02*
X1794743Y16246006D01*
X1794743Y16246006D02*
X1818552Y16169816D01*
X1818552Y16169816D02*
X1818552Y16055530D01*
X1818552Y16055530D02*
X1794743Y15979340D01*
X1794743Y15979340D02*
X1770933Y15941244D01*
X1770933Y15941244D02*
X1723314Y15903149D01*
X1723314Y15903149D02*
X1532838Y15903149D01*
X1532838Y15903149D02*
X1532838Y16703149D01*
X1532838Y16703149D02*
X1699505Y16703149D01*
X1699505Y16703149D02*
X1747124Y16665054D01*
X1747124Y16665054D02*
X1770933Y16626959D01*
X1770933Y16626959D02*
X1794743Y16550768D01*
X1794743Y16550768D02*
X1794743Y16474578D01*
X1794743Y16474578D02*
X1770933Y16398387D01*
X1770933Y16398387D02*
X1747124Y16360292D01*
X1747124Y16360292D02*
X1699505Y16322197D01*
X1699505Y16322197D02*
X1532838Y16322197D01*
X2294743Y15903149D02*
X2009029Y15903149D01*
X2151886Y15903149D02*
X2151886Y16703149D01*
X2151886Y16703149D02*
X2104267Y16588864D01*
X2104267Y16588864D02*
X2056648Y16512673D01*
X2056648Y16512673D02*
X2009029Y16474578D01*
X2604266Y16703149D02*
X2651885Y16703149D01*
X2651885Y16703149D02*
X2699504Y16665054D01*
X2699504Y16665054D02*
X2723314Y16626959D01*
X2723314Y16626959D02*
X2747123Y16550768D01*
X2747123Y16550768D02*
X2770933Y16398387D01*
X2770933Y16398387D02*
X2770933Y16207911D01*
X2770933Y16207911D02*
X2747123Y16055530D01*
X2747123Y16055530D02*
X2723314Y15979340D01*
X2723314Y15979340D02*
X2699504Y15941244D01*
X2699504Y15941244D02*
X2651885Y15903149D01*
X2651885Y15903149D02*
X2604266Y15903149D01*
X2604266Y15903149D02*
X2556647Y15941244D01*
X2556647Y15941244D02*
X2532838Y15979340D01*
X2532838Y15979340D02*
X2509028Y16055530D01*
X2509028Y16055530D02*
X2485219Y16207911D01*
X2485219Y16207911D02*
X2485219Y16398387D01*
X2485219Y16398387D02*
X2509028Y16550768D01*
X2509028Y16550768D02*
X2532838Y16626959D01*
X2532838Y16626959D02*
X2556647Y16665054D01*
X2556647Y16665054D02*
X2604266Y16703149D01*
X4984817Y2620127D02*
X4984817Y3420127D01*
X4984817Y3420127D02*
X5103865Y3420127D01*
X5103865Y3420127D02*
X5175293Y3382032D01*
X5175293Y3382032D02*
X5222912Y3305842D01*
X5222912Y3305842D02*
X5246722Y3229651D01*
X5246722Y3229651D02*
X5270531Y3077270D01*
X5270531Y3077270D02*
X5270531Y2962984D01*
X5270531Y2962984D02*
X5246722Y2810603D01*
X5246722Y2810603D02*
X5222912Y2734413D01*
X5222912Y2734413D02*
X5175293Y2658222D01*
X5175293Y2658222D02*
X5103865Y2620127D01*
X5103865Y2620127D02*
X4984817Y2620127D01*
X5484817Y2924889D02*
X5865770Y2924889D01*
X5675293Y2620127D02*
X5675293Y3229651D01*
X29622133Y10102425D02*
X29584038Y10030997D01*
X29584038Y10030997D02*
X29545942Y10007187D01*
X29545942Y10007187D02*
X29469752Y9983378D01*
X29469752Y9983378D02*
X29355466Y9983378D01*
X29355466Y9983378D02*
X29279276Y10007187D01*
X29279276Y10007187D02*
X29241181Y10030997D01*
X29241181Y10030997D02*
X29203085Y10078616D01*
X29203085Y10078616D02*
X29203085Y10269092D01*
X29203085Y10269092D02*
X30003085Y10269092D01*
X30003085Y10269092D02*
X30003085Y10102425D01*
X30003085Y10102425D02*
X29964990Y10054806D01*
X29964990Y10054806D02*
X29926895Y10030997D01*
X29926895Y10030997D02*
X29850704Y10007187D01*
X29850704Y10007187D02*
X29774514Y10007187D01*
X29774514Y10007187D02*
X29698323Y10030997D01*
X29698323Y10030997D02*
X29660228Y10054806D01*
X29660228Y10054806D02*
X29622133Y10102425D01*
X29622133Y10102425D02*
X29622133Y10269092D01*
X30003085Y9816711D02*
X30003085Y9483378D01*
X30003085Y9483378D02*
X29203085Y9697663D01*
X926722Y3355054D02*
X879103Y3393149D01*
X879103Y3393149D02*
X807674Y3393149D01*
X807674Y3393149D02*
X736246Y3355054D01*
X736246Y3355054D02*
X688627Y3278864D01*
X688627Y3278864D02*
X664817Y3202673D01*
X664817Y3202673D02*
X641008Y3050292D01*
X641008Y3050292D02*
X641008Y2936006D01*
X641008Y2936006D02*
X664817Y2783625D01*
X664817Y2783625D02*
X688627Y2707435D01*
X688627Y2707435D02*
X736246Y2631244D01*
X736246Y2631244D02*
X807674Y2593149D01*
X807674Y2593149D02*
X855293Y2593149D01*
X855293Y2593149D02*
X926722Y2631244D01*
X926722Y2631244D02*
X950531Y2669340D01*
X950531Y2669340D02*
X950531Y2936006D01*
X950531Y2936006D02*
X855293Y2936006D01*
X1164817Y2593149D02*
X1164817Y3393149D01*
X1164817Y3393149D02*
X1450531Y2593149D01*
X1450531Y2593149D02*
X1450531Y3393149D01*
X1688627Y2593149D02*
X1688627Y3393149D01*
X1688627Y3393149D02*
X1807675Y3393149D01*
X1807675Y3393149D02*
X1879103Y3355054D01*
X1879103Y3355054D02*
X1926722Y3278864D01*
X1926722Y3278864D02*
X1950532Y3202673D01*
X1950532Y3202673D02*
X1974341Y3050292D01*
X1974341Y3050292D02*
X1974341Y2936006D01*
X1974341Y2936006D02*
X1950532Y2783625D01*
X1950532Y2783625D02*
X1926722Y2707435D01*
X1926722Y2707435D02*
X1879103Y2631244D01*
X1879103Y2631244D02*
X1807675Y2593149D01*
X1807675Y2593149D02*
X1688627Y2593149D01*
X4771917Y14542903D02*
X4771917Y14780998D01*
X5000489Y14495284D02*
X4200489Y14661950D01*
X4200489Y14661950D02*
X5000489Y14828617D01*
X4200489Y14947664D02*
X4200489Y15280997D01*
X4200489Y15280997D02*
X5000489Y15066712D01*
X4668304Y6986739D02*
X4668304Y7224834D01*
X4896876Y6939120D02*
X4096876Y7105786D01*
X4096876Y7105786D02*
X4896876Y7272453D01*
X4096876Y7653405D02*
X4096876Y7558167D01*
X4096876Y7558167D02*
X4134971Y7510548D01*
X4134971Y7510548D02*
X4173066Y7486738D01*
X4173066Y7486738D02*
X4287352Y7439119D01*
X4287352Y7439119D02*
X4439733Y7415310D01*
X4439733Y7415310D02*
X4744495Y7415310D01*
X4744495Y7415310D02*
X4820685Y7439119D01*
X4820685Y7439119D02*
X4858781Y7462929D01*
X4858781Y7462929D02*
X4896876Y7510548D01*
X4896876Y7510548D02*
X4896876Y7605786D01*
X4896876Y7605786D02*
X4858781Y7653405D01*
X4858781Y7653405D02*
X4820685Y7677214D01*
X4820685Y7677214D02*
X4744495Y7701024D01*
X4744495Y7701024D02*
X4554019Y7701024D01*
X4554019Y7701024D02*
X4477828Y7677214D01*
X4477828Y7677214D02*
X4439733Y7653405D01*
X4439733Y7653405D02*
X4401638Y7605786D01*
X4401638Y7605786D02*
X4401638Y7510548D01*
X4401638Y7510548D02*
X4439733Y7462929D01*
X4439733Y7462929D02*
X4477828Y7439119D01*
X4477828Y7439119D02*
X4554019Y7415310D01*
D11*
X26737588Y1588153D02*
X27356635Y1588153D01*
X27356635Y1588153D02*
X27023302Y1207201D01*
X27023302Y1207201D02*
X27166159Y1207201D01*
X27166159Y1207201D02*
X27261397Y1159582D01*
X27261397Y1159582D02*
X27309016Y1111963D01*
X27309016Y1111963D02*
X27356635Y1016725D01*
X27356635Y1016725D02*
X27356635Y778630D01*
X27356635Y778630D02*
X27309016Y683392D01*
X27309016Y683392D02*
X27261397Y635772D01*
X27261397Y635772D02*
X27166159Y588153D01*
X27166159Y588153D02*
X26880445Y588153D01*
X26880445Y588153D02*
X26785207Y635772D01*
X26785207Y635772D02*
X26737588Y683392D01*
X27642350Y1588153D02*
X27975683Y588153D01*
X27975683Y588153D02*
X28309016Y1588153D01*
X28547112Y1588153D02*
X29166159Y1588153D01*
X29166159Y1588153D02*
X28832826Y1207201D01*
X28832826Y1207201D02*
X28975683Y1207201D01*
X28975683Y1207201D02*
X29070921Y1159582D01*
X29070921Y1159582D02*
X29118540Y1111963D01*
X29118540Y1111963D02*
X29166159Y1016725D01*
X29166159Y1016725D02*
X29166159Y778630D01*
X29166159Y778630D02*
X29118540Y683392D01*
X29118540Y683392D02*
X29070921Y635772D01*
X29070921Y635772D02*
X28975683Y588153D01*
X28975683Y588153D02*
X28689969Y588153D01*
X28689969Y588153D02*
X28594731Y635772D01*
X28594731Y635772D02*
X28547112Y683392D01*
D10*
X27897600Y16322197D02*
X27969028Y16284102D01*
X27969028Y16284102D02*
X27992838Y16246006D01*
X27992838Y16246006D02*
X28016647Y16169816D01*
X28016647Y16169816D02*
X28016647Y16055530D01*
X28016647Y16055530D02*
X27992838Y15979340D01*
X27992838Y15979340D02*
X27969028Y15941244D01*
X27969028Y15941244D02*
X27921409Y15903149D01*
X27921409Y15903149D02*
X27730933Y15903149D01*
X27730933Y15903149D02*
X27730933Y16703149D01*
X27730933Y16703149D02*
X27897600Y16703149D01*
X27897600Y16703149D02*
X27945219Y16665054D01*
X27945219Y16665054D02*
X27969028Y16626959D01*
X27969028Y16626959D02*
X27992838Y16550768D01*
X27992838Y16550768D02*
X27992838Y16474578D01*
X27992838Y16474578D02*
X27969028Y16398387D01*
X27969028Y16398387D02*
X27945219Y16360292D01*
X27945219Y16360292D02*
X27897600Y16322197D01*
X27897600Y16322197D02*
X27730933Y16322197D01*
X28445219Y16436483D02*
X28445219Y15903149D01*
X28326171Y16741244D02*
X28207124Y16169816D01*
X28207124Y16169816D02*
X28516647Y16169816D01*
X4477828Y4797664D02*
X4515923Y4869092D01*
X4515923Y4869092D02*
X4554019Y4892902D01*
X4554019Y4892902D02*
X4630209Y4916711D01*
X4630209Y4916711D02*
X4744495Y4916711D01*
X4744495Y4916711D02*
X4820685Y4892902D01*
X4820685Y4892902D02*
X4858781Y4869092D01*
X4858781Y4869092D02*
X4896876Y4821473D01*
X4896876Y4821473D02*
X4896876Y4630997D01*
X4896876Y4630997D02*
X4096876Y4630997D01*
X4096876Y4630997D02*
X4096876Y4797664D01*
X4096876Y4797664D02*
X4134971Y4845283D01*
X4134971Y4845283D02*
X4173066Y4869092D01*
X4173066Y4869092D02*
X4249257Y4892902D01*
X4249257Y4892902D02*
X4325447Y4892902D01*
X4325447Y4892902D02*
X4401638Y4869092D01*
X4401638Y4869092D02*
X4439733Y4845283D01*
X4439733Y4845283D02*
X4477828Y4797664D01*
X4477828Y4797664D02*
X4477828Y4630997D01*
X4096876Y5226235D02*
X4096876Y5273854D01*
X4096876Y5273854D02*
X4134971Y5321473D01*
X4134971Y5321473D02*
X4173066Y5345283D01*
X4173066Y5345283D02*
X4249257Y5369092D01*
X4249257Y5369092D02*
X4401638Y5392902D01*
X4401638Y5392902D02*
X4592114Y5392902D01*
X4592114Y5392902D02*
X4744495Y5369092D01*
X4744495Y5369092D02*
X4820685Y5345283D01*
X4820685Y5345283D02*
X4858781Y5321473D01*
X4858781Y5321473D02*
X4896876Y5273854D01*
X4896876Y5273854D02*
X4896876Y5226235D01*
X4896876Y5226235D02*
X4858781Y5178616D01*
X4858781Y5178616D02*
X4820685Y5154807D01*
X4820685Y5154807D02*
X4744495Y5130997D01*
X4744495Y5130997D02*
X4592114Y5107188D01*
X4592114Y5107188D02*
X4401638Y5107188D01*
X4401638Y5107188D02*
X4249257Y5130997D01*
X4249257Y5130997D02*
X4173066Y5154807D01*
X4173066Y5154807D02*
X4134971Y5178616D01*
X4134971Y5178616D02*
X4096876Y5226235D01*
X31104744Y16197218D02*
X31342839Y16197218D01*
X31057125Y15968646D02*
X31223791Y16768646D01*
X31223791Y16768646D02*
X31390458Y15968646D01*
X31819029Y15968646D02*
X31533315Y15968646D01*
X31676172Y15968646D02*
X31676172Y16768646D01*
X31676172Y16768646D02*
X31628553Y16654361D01*
X31628553Y16654361D02*
X31580934Y16578170D01*
X31580934Y16578170D02*
X31533315Y16540075D01*
X32271409Y16768646D02*
X32033314Y16768646D01*
X32033314Y16768646D02*
X32009505Y16387694D01*
X32009505Y16387694D02*
X32033314Y16425789D01*
X32033314Y16425789D02*
X32080933Y16463884D01*
X32080933Y16463884D02*
X32199981Y16463884D01*
X32199981Y16463884D02*
X32247600Y16425789D01*
X32247600Y16425789D02*
X32271409Y16387694D01*
X32271409Y16387694D02*
X32295219Y16311503D01*
X32295219Y16311503D02*
X32295219Y16121027D01*
X32295219Y16121027D02*
X32271409Y16044837D01*
X32271409Y16044837D02*
X32247600Y16006741D01*
X32247600Y16006741D02*
X32199981Y15968646D01*
X32199981Y15968646D02*
X32080933Y15968646D01*
X32080933Y15968646D02*
X32033314Y16006741D01*
X32033314Y16006741D02*
X32009505Y16044837D01*
X3134817Y2623149D02*
X3134817Y3423149D01*
X3134817Y3423149D02*
X3253865Y3423149D01*
X3253865Y3423149D02*
X3325293Y3385054D01*
X3325293Y3385054D02*
X3372912Y3308864D01*
X3372912Y3308864D02*
X3396722Y3232673D01*
X3396722Y3232673D02*
X3420531Y3080292D01*
X3420531Y3080292D02*
X3420531Y2966006D01*
X3420531Y2966006D02*
X3396722Y2813625D01*
X3396722Y2813625D02*
X3372912Y2737435D01*
X3372912Y2737435D02*
X3325293Y2661244D01*
X3325293Y2661244D02*
X3253865Y2623149D01*
X3253865Y2623149D02*
X3134817Y2623149D01*
X3634817Y2927911D02*
X4015770Y2927911D01*
X4018712Y16131721D02*
X4256807Y16131721D01*
X3971093Y15903149D02*
X4137759Y16703149D01*
X4137759Y16703149D02*
X4304426Y15903149D01*
X4447283Y16626959D02*
X4471092Y16665054D01*
X4471092Y16665054D02*
X4518711Y16703149D01*
X4518711Y16703149D02*
X4637759Y16703149D01*
X4637759Y16703149D02*
X4685378Y16665054D01*
X4685378Y16665054D02*
X4709187Y16626959D01*
X4709187Y16626959D02*
X4732997Y16550768D01*
X4732997Y16550768D02*
X4732997Y16474578D01*
X4732997Y16474578D02*
X4709187Y16360292D01*
X4709187Y16360292D02*
X4423473Y15903149D01*
X4423473Y15903149D02*
X4732997Y15903149D01*
X4735705Y9527068D02*
X4735705Y9765163D01*
X4964277Y9479449D02*
X4164277Y9646115D01*
X4164277Y9646115D02*
X4964277Y9812782D01*
X4164277Y10217543D02*
X4164277Y9979448D01*
X4164277Y9979448D02*
X4545229Y9955639D01*
X4545229Y9955639D02*
X4507134Y9979448D01*
X4507134Y9979448D02*
X4469039Y10027067D01*
X4469039Y10027067D02*
X4469039Y10146115D01*
X4469039Y10146115D02*
X4507134Y10193734D01*
X4507134Y10193734D02*
X4545229Y10217543D01*
X4545229Y10217543D02*
X4621420Y10241353D01*
X4621420Y10241353D02*
X4811896Y10241353D01*
X4811896Y10241353D02*
X4888086Y10217543D01*
X4888086Y10217543D02*
X4926182Y10193734D01*
X4926182Y10193734D02*
X4964277Y10146115D01*
X4964277Y10146115D02*
X4964277Y10027067D01*
X4964277Y10027067D02*
X4926182Y9979448D01*
X4926182Y9979448D02*
X4888086Y9955639D01*
X29496854Y12702425D02*
X29458759Y12630997D01*
X29458759Y12630997D02*
X29420663Y12607187D01*
X29420663Y12607187D02*
X29344473Y12583378D01*
X29344473Y12583378D02*
X29230187Y12583378D01*
X29230187Y12583378D02*
X29153997Y12607187D01*
X29153997Y12607187D02*
X29115902Y12630997D01*
X29115902Y12630997D02*
X29077806Y12678616D01*
X29077806Y12678616D02*
X29077806Y12869092D01*
X29077806Y12869092D02*
X29877806Y12869092D01*
X29877806Y12869092D02*
X29877806Y12702425D01*
X29877806Y12702425D02*
X29839711Y12654806D01*
X29839711Y12654806D02*
X29801616Y12630997D01*
X29801616Y12630997D02*
X29725425Y12607187D01*
X29725425Y12607187D02*
X29649235Y12607187D01*
X29649235Y12607187D02*
X29573044Y12630997D01*
X29573044Y12630997D02*
X29534949Y12654806D01*
X29534949Y12654806D02*
X29496854Y12702425D01*
X29496854Y12702425D02*
X29496854Y12869092D01*
X29877806Y12416711D02*
X29877806Y12083378D01*
X29877806Y12083378D02*
X29077806Y12297663D01*
X26097600Y16322197D02*
X26169028Y16284102D01*
X26169028Y16284102D02*
X26192838Y16246006D01*
X26192838Y16246006D02*
X26216647Y16169816D01*
X26216647Y16169816D02*
X26216647Y16055530D01*
X26216647Y16055530D02*
X26192838Y15979340D01*
X26192838Y15979340D02*
X26169028Y15941244D01*
X26169028Y15941244D02*
X26121409Y15903149D01*
X26121409Y15903149D02*
X25930933Y15903149D01*
X25930933Y15903149D02*
X25930933Y16703149D01*
X25930933Y16703149D02*
X26097600Y16703149D01*
X26097600Y16703149D02*
X26145219Y16665054D01*
X26145219Y16665054D02*
X26169028Y16626959D01*
X26169028Y16626959D02*
X26192838Y16550768D01*
X26192838Y16550768D02*
X26192838Y16474578D01*
X26192838Y16474578D02*
X26169028Y16398387D01*
X26169028Y16398387D02*
X26145219Y16360292D01*
X26145219Y16360292D02*
X26097600Y16322197D01*
X26097600Y16322197D02*
X25930933Y16322197D01*
X26669028Y16703149D02*
X26430933Y16703149D01*
X26430933Y16703149D02*
X26407124Y16322197D01*
X26407124Y16322197D02*
X26430933Y16360292D01*
X26430933Y16360292D02*
X26478552Y16398387D01*
X26478552Y16398387D02*
X26597600Y16398387D01*
X26597600Y16398387D02*
X26645219Y16360292D01*
X26645219Y16360292D02*
X26669028Y16322197D01*
X26669028Y16322197D02*
X26692838Y16246006D01*
X26692838Y16246006D02*
X26692838Y16055530D01*
X26692838Y16055530D02*
X26669028Y15979340D01*
X26669028Y15979340D02*
X26645219Y15941244D01*
X26645219Y15941244D02*
X26597600Y15903149D01*
X26597600Y15903149D02*
X26478552Y15903149D01*
X26478552Y15903149D02*
X26430933Y15941244D01*
X26430933Y15941244D02*
X26407124Y15979340D01*
%TO.C,U1*%
X12596601Y13729237D02*
X12596601Y13221237D01*
X12596601Y6109237D02*
X12596601Y6617237D01*
X13104601Y13729237D02*
X12596601Y13729237D01*
X13104601Y6109237D02*
X12596601Y6109237D01*
X19708601Y13729237D02*
X20216601Y13729237D01*
X20216601Y13729237D02*
X20216601Y13221237D01*
X20216601Y6617237D02*
X20216601Y6109237D01*
X20216601Y6109237D02*
X19708601Y6109237D01*
D12*
X20343601Y14491237D02*
G75*
G02*
X20089601Y14491237I-127000J0D01*
G01*
X20089601Y14491237D02*
G75*
G02*
X20343601Y14491237I127000J0D01*
G01*
D11*
%TO.C,C1*%
X15880083Y16361834D02*
X14991083Y16361834D01*
X15880083Y15193434D02*
X14991083Y15193434D01*
%TO.C,R39*%
X10977471Y6009020D02*
X11866471Y6009020D01*
X10977471Y4840620D02*
X11866471Y4840620D01*
%TO.C,R14*%
X6625338Y10071667D02*
X7514338Y10071667D01*
X6625338Y8903267D02*
X7514338Y8903267D01*
D13*
%TO.C,U2*%
X21251656Y15445610D02*
X21251656Y14480410D01*
X21277056Y13439011D02*
X23055056Y13439010D01*
X23055056Y16512410D02*
X21277056Y16512410D01*
D14*
X23524957Y13312010D02*
G75*
G02*
X23397955Y13312010I-63501J0D01*
G01*
X23397955Y13312010D02*
G75*
G02*
X23524957Y13312010I63501J0D01*
G01*
D11*
%TO.C,R9*%
X21607568Y10161232D02*
X21607568Y9272232D01*
X22775968Y10161232D02*
X22775968Y9272232D01*
%TO.C,R10*%
X27615781Y10192725D02*
X27615781Y9303725D01*
X28784181Y10192725D02*
X28784181Y9303725D01*
D13*
%TO.C,LED2*%
X31153490Y3630449D02*
X32017090Y3627949D01*
%TO.C,J1*%
X841237Y16724173D02*
X1841237Y16724173D01*
D11*
%TO.C,R27*%
X6609972Y13111614D02*
X7498972Y13111614D01*
X6609972Y11943214D02*
X7498972Y11943214D01*
%TO.C,R25*%
X6596316Y14631587D02*
X7485316Y14631587D01*
X6596316Y13463187D02*
X7485316Y13463187D01*
%TO.C,R11*%
X27615781Y13192235D02*
X27615781Y12303235D01*
X28784181Y13192235D02*
X28784181Y12303235D01*
%TO.C,R32*%
X9620931Y10891472D02*
X10509931Y10891472D01*
X9620931Y9723072D02*
X10509931Y9723072D01*
D13*
%TO.C,Y1*%
X16024225Y19701194D02*
X19529425Y19701194D01*
X16024225Y16551594D02*
X16024225Y19701194D01*
X19885025Y16551594D02*
X16024225Y16551594D01*
X19885025Y16551594D02*
X19885025Y19320194D01*
D14*
X19953343Y19675794D02*
G75*
G02*
X19816707Y19675794I-68318J0D01*
G01*
X19816707Y19675794D02*
G75*
G02*
X19953343Y19675794I68318J0D01*
G01*
D11*
%TO.C,R37*%
X7595781Y6124544D02*
X7595781Y5235544D01*
X8764181Y6124544D02*
X8764181Y5235544D01*
%TO.C,C2*%
X18693872Y5091157D02*
X19582872Y5091157D01*
X18693872Y3922757D02*
X19582872Y3922757D01*
D13*
%TO.C,J2*%
X3799674Y4311941D02*
X3799674Y5311941D01*
D11*
%TO.C,C6*%
X14594674Y18781316D02*
X14594674Y17892316D01*
X15763074Y18781316D02*
X15763074Y17892316D01*
%TO.C,R15*%
X9620931Y9498846D02*
X10509931Y9498846D01*
X9620931Y8330446D02*
X10509931Y8330446D01*
%TO.C,R7*%
X24611675Y10168356D02*
X24611675Y9279356D01*
X25780075Y10168356D02*
X25780075Y9279356D01*
%TO.C,R29*%
X6618223Y11591640D02*
X7507223Y11591640D01*
X6618223Y10423240D02*
X7507223Y10423240D01*
D13*
%TO.C,LED3*%
X20502245Y16419111D02*
X20499745Y15555511D01*
D11*
%TO.C,C4*%
X10347441Y7585476D02*
X10347441Y6696476D01*
X11515841Y7585476D02*
X11515841Y6696476D01*
%TO.C,C5*%
X20162256Y18768052D02*
X20162256Y17879052D01*
X21330656Y18768052D02*
X21330656Y17879052D01*
%TO.C,R8*%
X23109621Y10168356D02*
X23109621Y9279356D01*
X24278021Y10168356D02*
X24278021Y9279356D01*
%TO.C,R38*%
X10967620Y4876976D02*
X11856620Y4876976D01*
X10967620Y3708576D02*
X11856620Y3708576D01*
%TO.C,R26*%
X9622026Y13676723D02*
X10511026Y13676723D01*
X9622026Y12508323D02*
X10511026Y12508323D01*
%TO.C,R16*%
X23504481Y5114244D02*
X22615481Y5114244D01*
X23504481Y3945844D02*
X22615481Y3945844D01*
%TO.C,R23*%
X9613115Y16461974D02*
X10502115Y16461974D01*
X9613115Y15293574D02*
X10502115Y15293574D01*
%TO.C,R36*%
X6424798Y5795771D02*
X6424798Y4906771D01*
X7593198Y5795771D02*
X7593198Y4906771D01*
D13*
%TO.C,J6*%
X21785869Y16697941D02*
X22785869Y16697941D01*
D11*
%TO.C,R21*%
X29222307Y1848570D02*
X28593689Y2477188D01*
X30048491Y2674754D02*
X29419873Y3303372D01*
%TO.C,R28*%
X9620931Y12284097D02*
X10509931Y12284097D01*
X9620931Y11115697D02*
X10509931Y11115697D01*
%TO.C,C3*%
X21354234Y11649735D02*
X21354234Y12538735D01*
X22522634Y11649735D02*
X22522634Y12538735D01*
D13*
%TO.C,LED5*%
X13552274Y19744791D02*
X14415874Y19742291D01*
D11*
%TO.C,R12*%
X24407151Y13240897D02*
X24407151Y12351897D01*
X25575551Y13240897D02*
X25575551Y12351897D01*
%TO.C,R5*%
X26113728Y10176479D02*
X26113728Y9287479D01*
X27282128Y10176479D02*
X27282128Y9287479D01*
D13*
%TO.C,J5*%
X29934874Y15501941D02*
X29934874Y14501941D01*
D11*
%TO.C,R24*%
X9618019Y15069348D02*
X10507019Y15069348D01*
X9618019Y13900948D02*
X10507019Y13900948D01*
%TD*%
%LPC*%
D15*
%TO.C,U1*%
X19156861Y14163741D03*
X18656601Y14163741D03*
X18156601Y14163741D03*
X17656600Y14163741D03*
X17156601Y14163741D03*
X16656601Y14163741D03*
X16156601Y14163741D03*
X15656601Y14163741D03*
X15156602Y14163741D03*
X14656601Y14163741D03*
X14156601Y14163741D03*
X13656601Y14163741D03*
D16*
X12162097Y12669497D03*
X12162097Y12169237D03*
X12162097Y11669237D03*
X12162097Y11169236D03*
X12162097Y10669237D03*
X12162097Y10169237D03*
X12162097Y9669237D03*
X12162097Y9169237D03*
X12162097Y8669238D03*
X12162097Y8169237D03*
X12162097Y7669237D03*
X12162097Y7169237D03*
D17*
X13656341Y5674733D03*
X14156601Y5674733D03*
X14656601Y5674733D03*
X15156602Y5674733D03*
X15656601Y5674733D03*
X16156601Y5674733D03*
X16656601Y5674733D03*
X17156601Y5674733D03*
X17656600Y5674733D03*
X18156601Y5674733D03*
X18656601Y5674733D03*
X19156601Y5674733D03*
D18*
X20651105Y7168977D03*
X20651105Y7669237D03*
X20651105Y8169237D03*
X20651105Y8669238D03*
X20651105Y9169237D03*
X20651105Y9669237D03*
X20651105Y10169237D03*
X20651105Y10669237D03*
X20651105Y11169236D03*
X20651105Y11669237D03*
X20651105Y12169237D03*
X20651105Y12669237D03*
%TD*%
D19*
%TO.C,C1*%
X14735583Y15777634D03*
X16135583Y15777634D03*
%TD*%
D20*
%TO.C,R39*%
X12171971Y5424820D03*
X10671971Y5424820D03*
%TD*%
%TO.C,R14*%
X7819838Y9487467D03*
X6319838Y9487467D03*
%TD*%
D21*
%TO.C,U2*%
X23266056Y14013010D03*
X23266055Y14963010D03*
X23266056Y15913010D03*
X21066056Y15913010D03*
X21066056Y14013010D03*
%TD*%
D22*
%TO.C,R9*%
X22191768Y8966732D03*
X22191768Y10466732D03*
%TD*%
%TO.C,R10*%
X28199981Y8998225D03*
X28199981Y10498225D03*
%TD*%
D23*
%TO.C,LED2*%
X31585290Y3045100D03*
X31585290Y1470098D03*
%TD*%
D24*
%TO.C,J1*%
X1341237Y18392173D03*
X3881237Y18392173D03*
X6421237Y18392173D03*
X8961237Y18392173D03*
X11501237Y18392173D03*
%TD*%
D20*
%TO.C,R27*%
X7804472Y12527414D03*
X6304472Y12527414D03*
%TD*%
%TO.C,R25*%
X7790816Y14047387D03*
X6290816Y14047387D03*
%TD*%
D22*
%TO.C,R11*%
X28199981Y11997735D03*
X28199981Y13497735D03*
%TD*%
D20*
%TO.C,R32*%
X10815431Y10307272D03*
X9315431Y10307272D03*
%TD*%
D25*
%TO.C,Y1*%
X19054625Y19026395D03*
X16854625Y19026395D03*
X16854625Y17226393D03*
X19054625Y17226393D03*
%TD*%
D22*
%TO.C,R37*%
X8179981Y4930044D03*
X8179981Y6430044D03*
%TD*%
D26*
%TO.C,C2*%
X19838372Y4506957D03*
X18438372Y4506957D03*
%TD*%
D27*
%TO.C,J4*%
X1364704Y1243385D03*
D28*
X3364705Y1243385D03*
X5364704Y1243385D03*
%TD*%
D29*
%TO.C,J2*%
X2072474Y4811941D03*
X2072474Y7351941D03*
X2072474Y9891941D03*
X2072474Y12431941D03*
X2072474Y14971941D03*
%TD*%
D30*
%TO.C,C6*%
X15178874Y17636816D03*
X15178874Y19036816D03*
%TD*%
D20*
%TO.C,R15*%
X10815431Y8914646D03*
X9315431Y8914646D03*
%TD*%
D22*
%TO.C,R7*%
X25195875Y8973856D03*
X25195875Y10473856D03*
%TD*%
D20*
%TO.C,R29*%
X7812723Y11007440D03*
X6312723Y11007440D03*
%TD*%
D31*
%TO.C,LED3*%
X19916896Y15987311D03*
X18341894Y15987311D03*
%TD*%
D30*
%TO.C,C4*%
X10931641Y6440976D03*
X10931641Y7840976D03*
%TD*%
%TO.C,C5*%
X20746456Y17623552D03*
X20746456Y19023552D03*
%TD*%
D22*
%TO.C,R8*%
X23693821Y8973856D03*
X23693821Y10473856D03*
%TD*%
D20*
%TO.C,R38*%
X12162120Y4292776D03*
X10662120Y4292776D03*
%TD*%
%TO.C,R26*%
X10816526Y13092523D03*
X9316526Y13092523D03*
%TD*%
D32*
%TO.C,R16*%
X22309981Y4530044D03*
X23809981Y4530044D03*
%TD*%
D20*
%TO.C,R23*%
X10807615Y15877774D03*
X9307615Y15877774D03*
%TD*%
D22*
%TO.C,R36*%
X7008998Y4601271D03*
X7008998Y6101271D03*
%TD*%
D24*
%TO.C,J6*%
X22285869Y18425141D03*
X24825869Y18425141D03*
X27365869Y18425141D03*
X29905869Y18425141D03*
X32445869Y18425141D03*
%TD*%
D33*
%TO.C,R21*%
X28790760Y3106301D03*
X29851420Y2045641D03*
%TD*%
D20*
%TO.C,R28*%
X10815431Y11699897D03*
X9315431Y11699897D03*
%TD*%
D34*
%TO.C,C3*%
X21938434Y12794235D03*
X21938434Y11394235D03*
%TD*%
D23*
%TO.C,LED5*%
X13984074Y19159442D03*
X13984074Y17584440D03*
%TD*%
D22*
%TO.C,R12*%
X24991351Y12046397D03*
X24991351Y13546397D03*
%TD*%
%TO.C,R5*%
X26697928Y8981979D03*
X26697928Y10481979D03*
%TD*%
D35*
%TO.C,J5*%
X31662074Y15001941D03*
X31662074Y12461941D03*
X31662074Y9921941D03*
X31662074Y7381941D03*
X31662074Y4841941D03*
%TD*%
D20*
%TO.C,R24*%
X10812519Y14485148D03*
X9312519Y14485148D03*
%TD*%
D36*
%TO.C,J3*%
X7863002Y1971182D03*
X10403002Y1971182D03*
X12943002Y1971182D03*
X15483002Y1971182D03*
X18023002Y1971182D03*
X20563002Y1971182D03*
X23103002Y1971182D03*
X25643002Y1971182D03*
%TD*%
D37*
X2607414Y18361141D03*
X23555610Y18401254D03*
X7694074Y18401941D03*
X2067327Y11161613D03*
X2067327Y13698111D03*
X2067327Y8606941D03*
X10224074Y18431941D03*
X2057327Y6066613D03*
X5154074Y18381941D03*
%LPD*%
M02*
