%TF.GenerationSoftware,KiCad,Pcbnew,9.0.7*%
%TF.CreationDate,2026-03-16T20:08:15+03:00*%
%TF.ProjectId,ch32_v303cb,63683332-5f76-4333-9033-63622e6b6963,rev?*%
%TF.SameCoordinates,PX7368e76PY6657345*%
%TF.FileFunction,Paste,Top*%
%TF.FilePolarity,Positive*%
%FSLAX46Y46*%
G04 Gerber Fmt 4.6, Leading zero omitted, Abs format (unit mm)*
G04 Created by KiCad (PCBNEW 9.0.7) date 2026-03-16 20:08:15*
%MOMM*%
%LPD*%
G01*
G04 APERTURE LIST*
G04 Aperture macros list*
%AMRoundRect*
0 Rectangle with rounded corners*
0 $1 Rounding radius*
0 $2 $3 $4 $5 $6 $7 $8 $9 X,Y pos of 4 corners*
0 Add a 4 corners polygon primitive as box body*
4,1,4,$2,$3,$4,$5,$6,$7,$8,$9,$2,$3,0*
0 Add four circle primitives for the rounded corners*
1,1,$1+$1,$2,$3*
1,1,$1+$1,$4,$5*
1,1,$1+$1,$6,$7*
1,1,$1+$1,$8,$9*
0 Add four rect primitives between the rounded corners*
20,1,$1+$1,$2,$3,$4,$5,0*
20,1,$1+$1,$4,$5,$6,$7,0*
20,1,$1+$1,$6,$7,$8,$9,0*
20,1,$1+$1,$8,$9,$2,$3,0*%
G04 Aperture macros list end*
%ADD10RoundRect,0.074942X-0.074942X0.329149X-0.074942X-0.329149X0.074942X-0.329149X0.074942X0.329149X0*%
%ADD11RoundRect,0.074942X-0.329149X-0.074942X0.329149X-0.074942X0.329149X0.074942X-0.329149X0.074942X0*%
%ADD12RoundRect,0.074942X0.074942X-0.329149X0.074942X0.329149X-0.074942X0.329149X-0.074942X-0.329149X0*%
%ADD13RoundRect,0.074942X0.329149X0.074942X-0.329149X0.074942X-0.329149X-0.074942X0.329149X-0.074942X0*%
%ADD14RoundRect,0.187500X-0.187500X-0.287500X0.187500X-0.287500X0.187500X0.287500X-0.187500X0.287500X0*%
%ADD15RoundRect,0.162500X-0.162500X-0.312500X0.162500X-0.312500X0.162500X0.312500X-0.162500X0.312500X0*%
%ADD16RoundRect,0.162500X0.367500X0.162500X-0.367500X0.162500X-0.367500X-0.162500X0.367500X-0.162500X0*%
%ADD17RoundRect,0.162500X-0.312500X0.162500X-0.312500X-0.162500X0.312500X-0.162500X0.312500X0.162500X0*%
%ADD18RoundRect,0.218750X-0.256250X0.218750X-0.256250X-0.218750X0.256250X-0.218750X0.256250X0.218750X0*%
%ADD19RoundRect,0.250000X0.400000X0.250000X-0.400000X0.250000X-0.400000X-0.250000X0.400000X-0.250000X0*%
%ADD20RoundRect,0.187500X0.187500X0.287500X-0.187500X0.287500X-0.187500X-0.287500X0.187500X-0.287500X0*%
%ADD21RoundRect,0.187500X0.287500X-0.187500X0.287500X0.187500X-0.287500X0.187500X-0.287500X-0.187500X0*%
%ADD22RoundRect,0.218750X0.218750X0.256250X-0.218750X0.256250X-0.218750X-0.256250X0.218750X-0.256250X0*%
%ADD23RoundRect,0.162500X0.162500X0.312500X-0.162500X0.312500X-0.162500X-0.312500X0.162500X-0.312500X0*%
%ADD24RoundRect,0.162500X0.335876X0.106066X0.106066X0.335876X-0.335876X-0.106066X-0.106066X-0.335876X0*%
%ADD25RoundRect,0.187500X-0.287500X0.187500X-0.287500X-0.187500X0.287500X-0.187500X0.287500X0.187500X0*%
G04 APERTURE END LIST*
D10*
%TO.C,U1*%
X19156861Y14163741D03*
X18656601Y14163741D03*
X18156601Y14163741D03*
X17656600Y14163741D03*
X17156601Y14163741D03*
X16656601Y14163741D03*
X16156601Y14163741D03*
X15656601Y14163741D03*
X15156602Y14163741D03*
X14656601Y14163741D03*
X14156601Y14163741D03*
X13656601Y14163741D03*
D11*
X12162097Y12669497D03*
X12162097Y12169237D03*
X12162097Y11669237D03*
X12162097Y11169236D03*
X12162097Y10669237D03*
X12162097Y10169237D03*
X12162097Y9669237D03*
X12162097Y9169237D03*
X12162097Y8669238D03*
X12162097Y8169237D03*
X12162097Y7669237D03*
X12162097Y7169237D03*
D12*
X13656341Y5674733D03*
X14156601Y5674733D03*
X14656601Y5674733D03*
X15156602Y5674733D03*
X15656601Y5674733D03*
X16156601Y5674733D03*
X16656601Y5674733D03*
X17156601Y5674733D03*
X17656600Y5674733D03*
X18156601Y5674733D03*
X18656601Y5674733D03*
X19156601Y5674733D03*
D13*
X20651105Y7168977D03*
X20651105Y7669237D03*
X20651105Y8169237D03*
X20651105Y8669238D03*
X20651105Y9169237D03*
X20651105Y9669237D03*
X20651105Y10169237D03*
X20651105Y10669237D03*
X20651105Y11169236D03*
X20651105Y11669237D03*
X20651105Y12169237D03*
X20651105Y12669237D03*
%TD*%
D14*
%TO.C,C1*%
X14735583Y15777634D03*
X16135583Y15777634D03*
%TD*%
D15*
%TO.C,R39*%
X12171971Y5424820D03*
X10671971Y5424820D03*
%TD*%
%TO.C,R14*%
X7819838Y9487467D03*
X6319838Y9487467D03*
%TD*%
D16*
%TO.C,U2*%
X23266056Y14013010D03*
X23266055Y14963010D03*
X23266056Y15913010D03*
X21066056Y15913010D03*
X21066056Y14013010D03*
%TD*%
D17*
%TO.C,R9*%
X22191768Y8966732D03*
X22191768Y10466732D03*
%TD*%
%TO.C,R10*%
X28199981Y8998225D03*
X28199981Y10498225D03*
%TD*%
D18*
%TO.C,LED2*%
X31585290Y3045100D03*
X31585290Y1470098D03*
%TD*%
D15*
%TO.C,R27*%
X7804472Y12527414D03*
X6304472Y12527414D03*
%TD*%
%TO.C,R25*%
X7790816Y14047387D03*
X6290816Y14047387D03*
%TD*%
D17*
%TO.C,R11*%
X28199981Y11997735D03*
X28199981Y13497735D03*
%TD*%
D15*
%TO.C,R32*%
X10815431Y10307272D03*
X9315431Y10307272D03*
%TD*%
D19*
%TO.C,Y1*%
X19054625Y19026395D03*
X16854625Y19026395D03*
X16854625Y17226393D03*
X19054625Y17226393D03*
%TD*%
D17*
%TO.C,R37*%
X8179981Y4930044D03*
X8179981Y6430044D03*
%TD*%
D20*
%TO.C,C2*%
X19838372Y4506957D03*
X18438372Y4506957D03*
%TD*%
D21*
%TO.C,C6*%
X15178874Y17636816D03*
X15178874Y19036816D03*
%TD*%
D15*
%TO.C,R15*%
X10815431Y8914646D03*
X9315431Y8914646D03*
%TD*%
D17*
%TO.C,R7*%
X25195875Y8973856D03*
X25195875Y10473856D03*
%TD*%
D15*
%TO.C,R29*%
X7812723Y11007440D03*
X6312723Y11007440D03*
%TD*%
D22*
%TO.C,LED3*%
X19916896Y15987311D03*
X18341894Y15987311D03*
%TD*%
D21*
%TO.C,C4*%
X10931641Y6440976D03*
X10931641Y7840976D03*
%TD*%
%TO.C,C5*%
X20746456Y17623552D03*
X20746456Y19023552D03*
%TD*%
D17*
%TO.C,R8*%
X23693821Y8973856D03*
X23693821Y10473856D03*
%TD*%
D15*
%TO.C,R38*%
X12162120Y4292776D03*
X10662120Y4292776D03*
%TD*%
%TO.C,R26*%
X10816526Y13092523D03*
X9316526Y13092523D03*
%TD*%
D23*
%TO.C,R16*%
X22309981Y4530044D03*
X23809981Y4530044D03*
%TD*%
D15*
%TO.C,R23*%
X10807615Y15877774D03*
X9307615Y15877774D03*
%TD*%
D17*
%TO.C,R36*%
X7008998Y4601271D03*
X7008998Y6101271D03*
%TD*%
D24*
%TO.C,R21*%
X28790760Y3106301D03*
X29851420Y2045641D03*
%TD*%
D15*
%TO.C,R28*%
X10815431Y11699897D03*
X9315431Y11699897D03*
%TD*%
D25*
%TO.C,C3*%
X21938434Y12794235D03*
X21938434Y11394235D03*
%TD*%
D18*
%TO.C,LED5*%
X13984074Y19159442D03*
X13984074Y17584440D03*
%TD*%
D17*
%TO.C,R12*%
X24991351Y12046397D03*
X24991351Y13546397D03*
%TD*%
%TO.C,R5*%
X26697928Y8981979D03*
X26697928Y10481979D03*
%TD*%
D15*
%TO.C,R24*%
X10812519Y14485148D03*
X9312519Y14485148D03*
%TD*%
M02*
