%TF.GenerationSoftware,KiCad,Pcbnew,9.0.7*%
%TF.CreationDate,2026-03-16T20:08:15+03:00*%
%TF.ProjectId,ch32_v303cb,63683332-5f76-4333-9033-63622e6b6963,rev?*%
%TF.SameCoordinates,PX7368e76PY6657345*%
%TF.FileFunction,Copper,L3,Inr*%
%TF.FilePolarity,Positive*%
%FSLAX46Y46*%
G04 Gerber Fmt 4.6, Leading zero omitted, Abs format (unit mm)*
G04 Created by KiCad (PCBNEW 9.0.7) date 2026-03-16 20:08:15*
%MOMM*%
%LPD*%
G01*
G04 APERTURE LIST*
%TA.AperFunction,ComponentPad*%
%ADD10R,1.350000X1.350000*%
%TD*%
%TA.AperFunction,ComponentPad*%
%ADD11O,1.350000X1.350000*%
%TD*%
%TA.AperFunction,ViaPad*%
%ADD12C,0.600000*%
%TD*%
%TA.AperFunction,ViaPad*%
%ADD13C,0.750000*%
%TD*%
%TA.AperFunction,ViaPad*%
%ADD14C,0.800000*%
%TD*%
%TA.AperFunction,Conductor*%
%ADD15C,0.800000*%
%TD*%
G04 APERTURE END LIST*
D10*
%TO.N,GND*%
%TO.C,J4*%
X1364704Y1243385D03*
D11*
%TO.N,/OTG_FS_D-*%
X3364705Y1243385D03*
%TO.N,/OTG_FS_D+*%
X5364704Y1243385D03*
%TD*%
D12*
%TO.N,+3.3V*%
X19539997Y4390044D03*
%TO.N,GND*%
X14919981Y11930044D03*
%TO.N,+3.3V*%
X21066057Y14013009D03*
X20039981Y14320044D03*
%TO.N,GND*%
X23269981Y14960044D03*
X4884847Y10375178D03*
X16180496Y11690197D03*
X9148478Y1986332D03*
X9148478Y817932D03*
X24388478Y1986332D03*
X11688478Y1986332D03*
X30473367Y3458566D03*
X26679981Y7330044D03*
X19734074Y18051941D03*
X11688478Y3174796D03*
X14228478Y817932D03*
X15452289Y11002489D03*
X31384074Y13671141D03*
X2631274Y17248577D03*
X861263Y13661628D03*
X28640874Y18411941D03*
X5132271Y17273093D03*
X5491441Y7588417D03*
X861263Y8554688D03*
X11688478Y817932D03*
X31384074Y11181941D03*
X30204768Y6092222D03*
X30195610Y8641941D03*
X9148478Y3174796D03*
X19308478Y817932D03*
X15705757Y16681890D03*
X22212844Y15844247D03*
X4589981Y12010044D03*
X13069054Y8496644D03*
X25878836Y12495955D03*
X22219981Y15020044D03*
X12884074Y16721941D03*
X24388478Y817932D03*
X31384074Y8641941D03*
X18726872Y7868323D03*
X14228478Y1986332D03*
X21879981Y16460044D03*
X7686909Y17142977D03*
X16768478Y1986332D03*
X23397629Y12592649D03*
X23572374Y17263939D03*
X861263Y11121628D03*
X30195610Y11181941D03*
X4242044Y6449646D03*
X30195610Y13671141D03*
X26100874Y18411941D03*
X31433141Y6096763D03*
X15899499Y18410700D03*
X26113839Y17266257D03*
X2509981Y2950044D03*
X16768478Y817932D03*
X15589289Y7799256D03*
X14228478Y3174796D03*
X19308478Y3174796D03*
X5772032Y5342145D03*
X21848478Y1986332D03*
X6178535Y8422094D03*
X16942558Y9371149D03*
X881327Y6041628D03*
X6399981Y2940044D03*
X21848478Y817932D03*
X21848478Y3174796D03*
X28658000Y17256039D03*
X31180874Y18411941D03*
X28539981Y7330044D03*
X19308478Y1986332D03*
X16768478Y3174796D03*
X24388478Y3174796D03*
%TO.N,+3.3V*%
X8241639Y6419081D03*
X21938436Y12794234D03*
D13*
X2607414Y18361141D03*
D12*
X21826520Y14194234D03*
X27669981Y3610044D03*
X19191552Y12257919D03*
X19689981Y13270044D03*
D13*
X23555610Y18401254D03*
D12*
X19339981Y15170044D03*
X21432347Y3846940D03*
X18356270Y13123853D03*
D13*
X7694074Y18401941D03*
X2067327Y11161613D03*
X2067327Y13698111D03*
D12*
X11132677Y6351545D03*
D13*
X2067327Y8606941D03*
X10224074Y18431941D03*
D12*
X20539981Y15020044D03*
D13*
X2057327Y6066613D03*
D12*
X7012544Y6090014D03*
D13*
X5154074Y18381941D03*
D12*
%TO.N,+3.3VA*%
X14797188Y16717053D03*
%TO.N,/PA0*%
X10830886Y15775132D03*
%TO.N,/PA1*%
X10830886Y14418757D03*
%TO.N,/PA2*%
X7790818Y14047386D03*
%TO.N,/PA3*%
X10817613Y13050589D03*
%TO.N,/PA4*%
X7879472Y12531570D03*
%TO.N,/PB1*%
X13794107Y9984114D03*
%TO.N,/PA5*%
X10899854Y11671523D03*
%TO.N,/PA7*%
X13022397Y10731857D03*
%TO.N,/PA6*%
X12996188Y12146250D03*
%TO.N,/PB0*%
X10821092Y10358429D03*
%TO.N,/~{RST}*%
X17150731Y10927409D03*
X29415468Y13682310D03*
%TO.N,/PB9*%
X19315184Y11437230D03*
%TO.N,/PB8*%
X24048786Y11508991D03*
X18945468Y10541680D03*
%TO.N,/TIM1_BKIN*%
X21489981Y4750044D03*
X13059981Y6060044D03*
%TO.N,/TIM1_CH1*%
X16084178Y7033517D03*
%TO.N,/TIM1_CH1N*%
X13639638Y7033517D03*
%TO.N,/TIM1_CH2N*%
X14421278Y7033517D03*
%TO.N,/TIM1_CH3*%
X17908004Y7062106D03*
%TO.N,/TIM1_CH3N*%
X15241233Y7033517D03*
%TO.N,/PB10_out*%
X5362691Y8601411D03*
X5255268Y14612503D03*
D14*
%TO.N,+5V*%
X27512303Y2341162D03*
X12887185Y19500405D03*
X934697Y16251941D03*
X24297829Y14565171D03*
X32806767Y16395141D03*
D12*
%TO.N,/PB2_BTN{slash}BOOT1*%
X14509433Y8607539D03*
%TO.N,/PC14*%
X18054829Y15028283D03*
%TO.N,/PC15*%
X17094624Y12593923D03*
%TO.N,Net-(U1-BOOT0)*%
X19645222Y9783647D03*
%TO.N,/PB11_out*%
X8050891Y8178692D03*
X10251274Y17141941D03*
%TO.N,/TIM1_BKIN_out*%
X23809981Y4530046D03*
%TO.N,/TIM1_CH2*%
X16961941Y7059824D03*
%TO.N,/PA3_out*%
X7078955Y15127710D03*
%TO.N,/PA7_out*%
X4912496Y13343449D03*
%TO.N,Net-(LED3-K)*%
X20704074Y16750899D03*
%TO.N,Net-(LED5-A)*%
X13876629Y16167086D03*
%TO.N,/OTG_FS_DP*%
X12162120Y4292776D03*
%TD*%
D15*
%TO.N,+5V*%
X12975858Y19500405D02*
X12887185Y19500405D01*
X12976858Y19499405D02*
X12975858Y19500405D01*
X32759316Y17883459D02*
X32759316Y19494296D01*
X30502900Y15581644D02*
X25314302Y15581644D01*
X934697Y16251941D02*
X928922Y16251941D01*
X32754207Y19499405D02*
X12976858Y19499405D01*
X1796340Y19499405D02*
X12681290Y19499405D01*
X31316397Y16395141D02*
X30502900Y15581644D01*
X32759316Y3861779D02*
X32759316Y17883459D01*
X25314302Y15581644D02*
X24297829Y14565171D01*
X27512303Y2341162D02*
X31238699Y2341162D01*
X928922Y16251941D02*
X893104Y16287759D01*
X32759316Y19494296D02*
X32754207Y19499405D01*
X12681290Y19499405D02*
X12682290Y19500405D01*
X32806767Y16395141D02*
X31316397Y16395141D01*
X31238699Y2341162D02*
X32759316Y3861779D01*
X12682290Y19500405D02*
X12887185Y19500405D01*
X893104Y16287759D02*
X893104Y18596169D01*
X893104Y18596169D02*
X1796340Y19499405D01*
%TD*%
%TA.AperFunction,Conductor*%
%TO.N,GND*%
G36*
X32210071Y18950160D02*
G01*
X32228816Y18904905D01*
X32228816Y16989641D01*
X32210071Y16944386D01*
X32164816Y16925641D01*
X31246554Y16925641D01*
X31111636Y16889491D01*
X31111635Y16889491D01*
X31080717Y16871640D01*
X30990660Y16819646D01*
X30301905Y16130889D01*
X30256650Y16112144D01*
X25388077Y16112144D01*
X25388061Y16112145D01*
X25384144Y16112145D01*
X25244460Y16112145D01*
X25244458Y16112145D01*
X25244453Y16112144D01*
X25109537Y16075994D01*
X25109532Y16075992D01*
X25059626Y16047177D01*
X24988569Y16006153D01*
X23873323Y14890907D01*
X23849453Y14849565D01*
X23849454Y14849564D01*
X23803479Y14769934D01*
X23803479Y14769933D01*
X23767329Y14635015D01*
X23767329Y14495328D01*
X23803479Y14360410D01*
X23803479Y14360409D01*
X23803480Y14360406D01*
X23803481Y14360405D01*
X23805161Y14357495D01*
X23831590Y14311719D01*
X23831589Y14311719D01*
X23873320Y14239439D01*
X23972096Y14140663D01*
X24032574Y14105746D01*
X24032577Y14105745D01*
X24032579Y14105744D01*
X24093063Y14070823D01*
X24093067Y14070822D01*
X24227986Y14034671D01*
X24227987Y14034671D01*
X24367672Y14034671D01*
X24446195Y14055711D01*
X24502595Y14070823D01*
X24563079Y14105744D01*
X24563081Y14105745D01*
X24623561Y14140663D01*
X24623561Y14140664D01*
X24623564Y14140665D01*
X24722335Y14239436D01*
X24722335Y14239438D01*
X24727599Y14244701D01*
X24727602Y14244706D01*
X25515297Y15032399D01*
X25560552Y15051144D01*
X30572743Y15051144D01*
X30646974Y15071034D01*
X30707666Y15087296D01*
X30768150Y15122217D01*
X30828635Y15157138D01*
X30927406Y15255909D01*
X30927406Y15255911D01*
X30932670Y15261174D01*
X30932673Y15261179D01*
X31517393Y15845896D01*
X31562648Y15864641D01*
X32164816Y15864641D01*
X32210071Y15845896D01*
X32228816Y15800641D01*
X32228816Y4108030D01*
X32210071Y4062775D01*
X31037704Y2890407D01*
X30992449Y2871662D01*
X27442460Y2871662D01*
X27307542Y2835512D01*
X27307541Y2835512D01*
X27186566Y2765667D01*
X27087798Y2666899D01*
X27017953Y2545924D01*
X27017953Y2545923D01*
X26981803Y2411006D01*
X26981803Y2271319D01*
X27017953Y2136402D01*
X27017953Y2136401D01*
X27017954Y2136398D01*
X27017955Y2136397D01*
X27087797Y2015427D01*
X27186568Y1916656D01*
X27307538Y1846814D01*
X27307540Y1846814D01*
X27307541Y1846813D01*
X27442460Y1810662D01*
X27442461Y1810662D01*
X31308542Y1810662D01*
X31368033Y1826603D01*
X31443465Y1846814D01*
X31524993Y1893885D01*
X31564434Y1916656D01*
X31663205Y2015427D01*
X31663205Y2015429D01*
X31668469Y2020692D01*
X31668472Y2020697D01*
X33114175Y3466398D01*
X33159429Y3485142D01*
X33204684Y3466397D01*
X33223429Y3421142D01*
X33223429Y556544D01*
X33204684Y511289D01*
X33159429Y492544D01*
X5901831Y492544D01*
X5856576Y511289D01*
X5837831Y556544D01*
X5856576Y601799D01*
X5866274Y609758D01*
X5878180Y617713D01*
X5990376Y729909D01*
X6078528Y861838D01*
X6139249Y1008429D01*
X6170204Y1164050D01*
X6170204Y1322720D01*
X6170204Y1322723D01*
X6139250Y1478337D01*
X6139249Y1478339D01*
X6139249Y1478341D01*
X6078528Y1624932D01*
X6078528Y1624933D01*
X5990376Y1756861D01*
X5878179Y1869058D01*
X5746251Y1957210D01*
X5605705Y2015426D01*
X5599660Y2017930D01*
X5599658Y2017931D01*
X5599657Y2017931D01*
X5599655Y2017932D01*
X5444042Y2048885D01*
X5444039Y2048885D01*
X5285369Y2048885D01*
X5285366Y2048885D01*
X5129752Y2017932D01*
X5129750Y2017931D01*
X4983156Y1957210D01*
X4851228Y1869058D01*
X4739031Y1756861D01*
X4650879Y1624933D01*
X4590158Y1478339D01*
X4590157Y1478337D01*
X4559204Y1322723D01*
X4559204Y1164048D01*
X4590157Y1008434D01*
X4590158Y1008432D01*
X4590159Y1008429D01*
X4596391Y993385D01*
X4650879Y861838D01*
X4739031Y729910D01*
X4739032Y729909D01*
X4851228Y617713D01*
X4863134Y609758D01*
X4890347Y569030D01*
X4880791Y520987D01*
X4840063Y493774D01*
X4827577Y492544D01*
X3901832Y492544D01*
X3856577Y511289D01*
X3837832Y556544D01*
X3856577Y601799D01*
X3866275Y609758D01*
X3878181Y617713D01*
X3990377Y729909D01*
X4078529Y861838D01*
X4139250Y1008429D01*
X4170205Y1164050D01*
X4170205Y1322720D01*
X4170205Y1322723D01*
X4139251Y1478337D01*
X4139250Y1478339D01*
X4139250Y1478341D01*
X4078529Y1624932D01*
X4078529Y1624933D01*
X3990377Y1756861D01*
X3878180Y1869058D01*
X3746252Y1957210D01*
X3605706Y2015426D01*
X3599661Y2017930D01*
X3599659Y2017931D01*
X3599658Y2017931D01*
X3599656Y2017932D01*
X3444043Y2048885D01*
X3444040Y2048885D01*
X3285370Y2048885D01*
X3285367Y2048885D01*
X3129753Y2017932D01*
X3129751Y2017931D01*
X2983157Y1957210D01*
X2851229Y1869058D01*
X2739032Y1756861D01*
X2650880Y1624933D01*
X2590159Y1478339D01*
X2590158Y1478337D01*
X2559205Y1322723D01*
X2559205Y1164048D01*
X2590158Y1008434D01*
X2590159Y1008432D01*
X2590160Y1008429D01*
X2596392Y993385D01*
X2650880Y861838D01*
X2739032Y729910D01*
X2739033Y729909D01*
X2851229Y617713D01*
X2863135Y609758D01*
X2890348Y569030D01*
X2880792Y520987D01*
X2840064Y493774D01*
X2827578Y492544D01*
X2353704Y492544D01*
X2308449Y511289D01*
X2289704Y556544D01*
X2289704Y993385D01*
X1680390Y993385D01*
X1684784Y997779D01*
X1737445Y1088991D01*
X1764704Y1190724D01*
X1764704Y1296046D01*
X1737445Y1397779D01*
X1684784Y1488991D01*
X1680390Y1493385D01*
X2289704Y1493385D01*
X2289704Y1943011D01*
X2275198Y2015931D01*
X2275197Y2015932D01*
X2219945Y2098624D01*
X2219942Y2098627D01*
X2137250Y2153879D01*
X2137249Y2153880D01*
X2064330Y2168385D01*
X1614704Y2168385D01*
X1614704Y1559071D01*
X1610310Y1563465D01*
X1519098Y1616126D01*
X1417365Y1643385D01*
X1312043Y1643385D01*
X1210310Y1616126D01*
X1119098Y1563465D01*
X1114704Y1559071D01*
X1114704Y2168385D01*
X665078Y2168385D01*
X592158Y2153880D01*
X586334Y2151467D01*
X585853Y2152627D01*
X544116Y2144325D01*
X503389Y2171540D01*
X492604Y2207095D01*
X492604Y4349450D01*
X11731620Y4349450D01*
X11731620Y4236103D01*
X11731621Y4236094D01*
X11760956Y4126614D01*
X11760956Y4126613D01*
X11760957Y4126610D01*
X11760958Y4126609D01*
X11817634Y4028443D01*
X11897787Y3948290D01*
X11995953Y3891614D01*
X11995955Y3891614D01*
X11995956Y3891613D01*
X12060275Y3874379D01*
X12105444Y3862276D01*
X12105447Y3862276D01*
X12218793Y3862276D01*
X12218796Y3862276D01*
X12328287Y3891614D01*
X12426453Y3948290D01*
X12506606Y4028443D01*
X12563282Y4126609D01*
X12592620Y4236100D01*
X12592620Y4349452D01*
X12563282Y4458943D01*
X12506606Y4557109D01*
X12426453Y4637262D01*
X12328287Y4693938D01*
X12328286Y4693939D01*
X12328283Y4693940D01*
X12218802Y4723275D01*
X12218798Y4723276D01*
X12218796Y4723276D01*
X12105444Y4723276D01*
X12105442Y4723276D01*
X12105437Y4723275D01*
X11995957Y4693940D01*
X11995956Y4693940D01*
X11897785Y4637261D01*
X11817635Y4557111D01*
X11760956Y4458940D01*
X11760956Y4458939D01*
X11731621Y4349459D01*
X11731620Y4349450D01*
X492604Y4349450D01*
X492604Y14332464D01*
X511349Y14377719D01*
X556604Y14396464D01*
X598342Y14380980D01*
X1103176Y13946645D01*
X1574547Y13541099D01*
X1594624Y13509156D01*
X1596274Y13502999D01*
X1596276Y13502994D01*
X1662827Y13387726D01*
X1688083Y13362470D01*
X1706828Y13317466D01*
X1713769Y11549701D01*
X1695201Y11504373D01*
X1662826Y11471998D01*
X1596274Y11356726D01*
X1596274Y11356725D01*
X1561828Y11228170D01*
X1561827Y11228161D01*
X1561827Y11095066D01*
X1561828Y11095057D01*
X1596274Y10966502D01*
X1596274Y10966501D01*
X1596275Y10966499D01*
X1596276Y10966497D01*
X1651565Y10870733D01*
X1662827Y10851228D01*
X1698081Y10815974D01*
X1716826Y10770970D01*
X1723760Y9005021D01*
X1705192Y8959693D01*
X1705016Y8959516D01*
X1662825Y8917325D01*
X1596274Y8802054D01*
X1596274Y8802053D01*
X1561828Y8673498D01*
X1561827Y8673489D01*
X1561827Y8540394D01*
X1561828Y8540385D01*
X1596274Y8411830D01*
X1596274Y8411829D01*
X1596275Y8411827D01*
X1596276Y8411825D01*
X1639431Y8337078D01*
X1662827Y8296556D01*
X1708152Y8251231D01*
X1726897Y8206227D01*
X1733657Y6484590D01*
X1715089Y6439262D01*
X1714913Y6439085D01*
X1652825Y6376997D01*
X1586274Y6261726D01*
X1586274Y6261725D01*
X1551828Y6133170D01*
X1551827Y6133161D01*
X1551827Y6000066D01*
X1551828Y6000057D01*
X1586274Y5871502D01*
X1586274Y5871501D01*
X1586275Y5871499D01*
X1586276Y5871497D01*
X1652826Y5756229D01*
X1746943Y5662112D01*
X1862211Y5595562D01*
X1862213Y5595562D01*
X1862214Y5595561D01*
X1940889Y5574481D01*
X1990777Y5561113D01*
X1990780Y5561113D01*
X2123874Y5561113D01*
X2123877Y5561113D01*
X2160497Y5570926D01*
X2209057Y5564534D01*
X2222317Y5554358D01*
X2270968Y5505700D01*
X2270969Y5505699D01*
X11224601Y5510742D01*
X11245368Y5507291D01*
X17399980Y3400044D01*
X21439981Y3400044D01*
X21439983Y3400044D01*
X21453197Y3406445D01*
X21454511Y3403732D01*
X21476473Y3416003D01*
X21483935Y3416440D01*
X21489020Y3416440D01*
X21489023Y3416440D01*
X21598514Y3445778D01*
X21696680Y3502454D01*
X21776833Y3582607D01*
X21825394Y3666718D01*
X27239481Y3666718D01*
X27239481Y3553371D01*
X27239482Y3553362D01*
X27268817Y3443882D01*
X27268817Y3443881D01*
X27268818Y3443878D01*
X27268819Y3443877D01*
X27325495Y3345711D01*
X27405648Y3265558D01*
X27503814Y3208882D01*
X27503816Y3208882D01*
X27503817Y3208881D01*
X27570819Y3190928D01*
X27613305Y3179544D01*
X27613308Y3179544D01*
X27726654Y3179544D01*
X27726657Y3179544D01*
X27836148Y3208882D01*
X27934314Y3265558D01*
X28014467Y3345711D01*
X28071143Y3443877D01*
X28100481Y3553368D01*
X28100481Y3666720D01*
X28071143Y3776211D01*
X28014467Y3874377D01*
X27934314Y3954530D01*
X27836148Y4011206D01*
X27836147Y4011207D01*
X27836144Y4011208D01*
X27726663Y4040543D01*
X27726659Y4040544D01*
X27726657Y4040544D01*
X27613305Y4040544D01*
X27613303Y4040544D01*
X27613298Y4040543D01*
X27503818Y4011208D01*
X27503817Y4011208D01*
X27405646Y3954529D01*
X27325496Y3874379D01*
X27268817Y3776208D01*
X27268817Y3776207D01*
X27239482Y3666727D01*
X27239481Y3666718D01*
X21825394Y3666718D01*
X21833509Y3680773D01*
X21835307Y3687482D01*
X21835308Y3687484D01*
X21859080Y3776207D01*
X21862847Y3790264D01*
X21862847Y3903616D01*
X21862847Y3903617D01*
X21862800Y3903973D01*
X21862847Y3904149D01*
X21862847Y3907811D01*
X21863828Y3907811D01*
X21875472Y3951289D01*
X21875934Y3951884D01*
X22229981Y4400044D01*
X22229895Y4458940D01*
X22229710Y4586720D01*
X23379481Y4586720D01*
X23379481Y4473373D01*
X23379482Y4473364D01*
X23408817Y4363884D01*
X23408817Y4363883D01*
X23408818Y4363880D01*
X23408819Y4363879D01*
X23465495Y4265713D01*
X23545648Y4185560D01*
X23643814Y4128884D01*
X23643816Y4128884D01*
X23643817Y4128883D01*
X23709539Y4111273D01*
X23753305Y4099546D01*
X23753308Y4099546D01*
X23866654Y4099546D01*
X23866657Y4099546D01*
X23976148Y4128884D01*
X24074314Y4185560D01*
X24154467Y4265713D01*
X24211143Y4363879D01*
X24240481Y4473370D01*
X24240481Y4586722D01*
X24211143Y4696213D01*
X24154467Y4794379D01*
X24074314Y4874532D01*
X23976148Y4931208D01*
X23976147Y4931209D01*
X23976144Y4931210D01*
X23866663Y4960545D01*
X23866659Y4960546D01*
X23866657Y4960546D01*
X23753305Y4960546D01*
X23753303Y4960546D01*
X23753298Y4960545D01*
X23643818Y4931210D01*
X23643817Y4931210D01*
X23545646Y4874531D01*
X23465496Y4794381D01*
X23408817Y4696210D01*
X23408817Y4696209D01*
X23379482Y4586729D01*
X23379481Y4586720D01*
X22229710Y4586720D01*
X22229704Y4590824D01*
X22224375Y8251231D01*
X22219551Y11565665D01*
X23618286Y11565665D01*
X23618286Y11452318D01*
X23618287Y11452309D01*
X23647622Y11342829D01*
X23647622Y11342828D01*
X23647623Y11342825D01*
X23647624Y11342824D01*
X23704300Y11244658D01*
X23784453Y11164505D01*
X23882619Y11107829D01*
X23882621Y11107829D01*
X23882622Y11107828D01*
X23930251Y11095066D01*
X23992110Y11078491D01*
X23992113Y11078491D01*
X24105459Y11078491D01*
X24105462Y11078491D01*
X24214953Y11107829D01*
X24313119Y11164505D01*
X24393272Y11244658D01*
X24449948Y11342824D01*
X24479286Y11452315D01*
X24479286Y11565667D01*
X24449948Y11675158D01*
X24393272Y11773324D01*
X24313119Y11853477D01*
X24214953Y11910153D01*
X24214952Y11910154D01*
X24214949Y11910155D01*
X24105468Y11939490D01*
X24105464Y11939491D01*
X24105462Y11939491D01*
X23992110Y11939491D01*
X23992108Y11939491D01*
X23992103Y11939490D01*
X23882623Y11910155D01*
X23882622Y11910155D01*
X23784451Y11853476D01*
X23704301Y11773326D01*
X23647622Y11675155D01*
X23647622Y11675154D01*
X23618287Y11565674D01*
X23618286Y11565665D01*
X22219551Y11565665D01*
X22218280Y12438662D01*
X22236955Y12483935D01*
X22282922Y12529901D01*
X22339598Y12628067D01*
X22368936Y12737558D01*
X22368936Y12850910D01*
X22339598Y12960401D01*
X22282922Y13058567D01*
X22235988Y13105501D01*
X22217244Y13150661D01*
X22216387Y13738984D01*
X28984968Y13738984D01*
X28984968Y13625637D01*
X28984969Y13625628D01*
X29014304Y13516148D01*
X29014304Y13516147D01*
X29014305Y13516144D01*
X29014306Y13516143D01*
X29070982Y13417977D01*
X29151135Y13337824D01*
X29249301Y13281148D01*
X29249303Y13281148D01*
X29249304Y13281147D01*
X29316306Y13263194D01*
X29358792Y13251810D01*
X29358795Y13251810D01*
X29472141Y13251810D01*
X29472144Y13251810D01*
X29581635Y13281148D01*
X29679801Y13337824D01*
X29759954Y13417977D01*
X29816630Y13516143D01*
X29845968Y13625634D01*
X29845968Y13738986D01*
X29816630Y13848477D01*
X29759954Y13946643D01*
X29679801Y14026796D01*
X29581635Y14083472D01*
X29581634Y14083473D01*
X29581631Y14083474D01*
X29472150Y14112809D01*
X29472146Y14112810D01*
X29472144Y14112810D01*
X29358792Y14112810D01*
X29358790Y14112810D01*
X29358785Y14112809D01*
X29249305Y14083474D01*
X29249304Y14083474D01*
X29151133Y14026795D01*
X29070983Y13946645D01*
X29014304Y13848474D01*
X29014304Y13848473D01*
X28984969Y13738993D01*
X28984968Y13738984D01*
X22216387Y13738984D01*
X22216021Y13990632D01*
X22224596Y14022723D01*
X22227682Y14028067D01*
X22257020Y14137558D01*
X22257020Y14250910D01*
X22227682Y14360401D01*
X22224001Y14366776D01*
X22215427Y14398681D01*
X22215226Y14537268D01*
X21888265Y15008585D01*
X21877585Y15035409D01*
X21669171Y16401640D01*
X21680877Y16449203D01*
X21692234Y16461085D01*
X23451872Y17881554D01*
X23492071Y17895754D01*
X23622157Y17895754D01*
X23622160Y17895754D01*
X23750726Y17930203D01*
X23865994Y17996753D01*
X23960111Y18090870D01*
X24026661Y18206138D01*
X24061110Y18334704D01*
X24061110Y18467804D01*
X24026661Y18596370D01*
X24008098Y18628521D01*
X23999527Y18660076D01*
X23997865Y18904471D01*
X24016303Y18949851D01*
X24061429Y18968904D01*
X24061864Y18968905D01*
X32164816Y18968905D01*
X32210071Y18950160D01*
G37*
%TD.AperFunction*%
%TD*%
%TA.AperFunction,Conductor*%
%TO.N,+3.3V*%
G36*
X27716952Y3902865D02*
G01*
X27775706Y3887123D01*
X27791133Y3880733D01*
X27843819Y3850315D01*
X27857074Y3840144D01*
X27900079Y3797139D01*
X27910249Y3783885D01*
X27940664Y3731206D01*
X27947058Y3715770D01*
X27962800Y3657021D01*
X27964981Y3640456D01*
X27964981Y3579634D01*
X27962800Y3563069D01*
X27947058Y3504320D01*
X27940664Y3488884D01*
X27910249Y3436205D01*
X27900079Y3422951D01*
X27857074Y3379946D01*
X27843820Y3369776D01*
X27791141Y3339361D01*
X27775705Y3332967D01*
X27716957Y3317225D01*
X27700392Y3315044D01*
X27639570Y3315044D01*
X27623006Y3317225D01*
X27564256Y3332967D01*
X27548819Y3339361D01*
X27496140Y3369776D01*
X27482886Y3379946D01*
X27439878Y3422954D01*
X27429707Y3436209D01*
X27399295Y3488884D01*
X27392904Y3504314D01*
X27377160Y3563071D01*
X27374981Y3579630D01*
X27374981Y3640461D01*
X27377162Y3657025D01*
X27381470Y3673103D01*
X27392902Y3715771D01*
X27399292Y3731198D01*
X27429712Y3783889D01*
X27439877Y3797136D01*
X27482891Y3840150D01*
X27496138Y3850315D01*
X27548825Y3880733D01*
X27564248Y3887121D01*
X27623007Y3902865D01*
X27639565Y3905044D01*
X27700395Y3905044D01*
X27716952Y3902865D01*
G37*
%TD.AperFunction*%
%TA.AperFunction,Conductor*%
G36*
X12903578Y18969358D02*
G01*
X12907013Y18968906D01*
X12907016Y18968905D01*
X23798357Y18968905D01*
X23843612Y18950160D01*
X23862356Y18905340D01*
X23864030Y18659152D01*
X23868765Y18624557D01*
X23868767Y18624549D01*
X23877334Y18593008D01*
X23877339Y18592992D01*
X23890752Y18560772D01*
X23890757Y18560761D01*
X23896181Y18551367D01*
X23902575Y18535931D01*
X23923429Y18458105D01*
X23925610Y18441540D01*
X23925610Y18360970D01*
X23923429Y18344405D01*
X23902575Y18266578D01*
X23896181Y18251143D01*
X23855896Y18181368D01*
X23845726Y18168113D01*
X23788751Y18111138D01*
X23775496Y18100968D01*
X23705721Y18060683D01*
X23690286Y18054289D01*
X23612460Y18033435D01*
X23595895Y18031254D01*
X23492071Y18031254D01*
X23446940Y18023517D01*
X23406741Y18009317D01*
X23406739Y18009317D01*
X23406739Y18009316D01*
X23366761Y17986988D01*
X23366758Y17986986D01*
X22015933Y16896533D01*
X21968946Y16882693D01*
X21959170Y16884512D01*
X21945763Y16888104D01*
X21936657Y16890544D01*
X21823305Y16890544D01*
X21823303Y16890544D01*
X21823298Y16890543D01*
X21713818Y16861208D01*
X21713817Y16861208D01*
X21615646Y16804529D01*
X21535496Y16724379D01*
X21478817Y16626208D01*
X21478817Y16626207D01*
X21449482Y16516727D01*
X21449481Y16516718D01*
X21449481Y16403371D01*
X21449482Y16403362D01*
X21478817Y16293882D01*
X21478817Y16293881D01*
X21478818Y16293878D01*
X21478819Y16293877D01*
X21529767Y16205632D01*
X21535496Y16195710D01*
X21553714Y16177492D01*
X21571727Y16141888D01*
X21743633Y15014981D01*
X21751694Y14985293D01*
X21751694Y14985291D01*
X21751696Y14985286D01*
X21761149Y14961543D01*
X21762378Y14958458D01*
X21776924Y14931363D01*
X21776938Y14931340D01*
X21805006Y14890879D01*
X21814238Y14870968D01*
X21818817Y14853882D01*
X21818819Y14853876D01*
X21851541Y14797200D01*
X21871146Y14763243D01*
X21875496Y14755710D01*
X21947444Y14683762D01*
X21954774Y14674987D01*
X22068401Y14511194D01*
X22079816Y14474807D01*
X22079926Y14398486D01*
X22084570Y14363515D01*
X22093144Y14331610D01*
X22097108Y14322049D01*
X22099806Y14314106D01*
X22116288Y14252595D01*
X22119339Y14241211D01*
X22121520Y14224646D01*
X22121520Y14163823D01*
X22119339Y14147258D01*
X22099463Y14073082D01*
X22096782Y14065180D01*
X22093691Y14057712D01*
X22093690Y14057709D01*
X22085114Y14025612D01*
X22085112Y14025605D01*
X22080521Y13990441D01*
X22080521Y13990429D01*
X22080887Y13738787D01*
X22080913Y13721151D01*
X22080913Y13721150D01*
X22081744Y13150465D01*
X22092096Y13098716D01*
X22110839Y13053557D01*
X22140175Y13009688D01*
X22168534Y12981329D01*
X22178704Y12968075D01*
X22209119Y12915396D01*
X22215513Y12899960D01*
X22231255Y12841211D01*
X22233436Y12824646D01*
X22233436Y12763824D01*
X22231255Y12747259D01*
X22215513Y12688510D01*
X22209119Y12673075D01*
X22178705Y12620397D01*
X22168536Y12607144D01*
X22141148Y12579755D01*
X22141138Y12579742D01*
X22111692Y12535606D01*
X22093018Y12490335D01*
X22093018Y12490334D01*
X22082779Y12438460D01*
X22084051Y11565468D01*
X22084077Y11547832D01*
X22084077Y11547831D01*
X22094210Y4586523D01*
X22094236Y4568887D01*
X22094236Y4568885D01*
X22094379Y4469305D01*
X22080599Y4429540D01*
X21769538Y4035789D01*
X21768940Y4035026D01*
X21768448Y4034394D01*
X21744583Y3986339D01*
X21738785Y3964690D01*
X21738786Y3964689D01*
X21731883Y3938913D01*
X21727347Y3921975D01*
X21727347Y3816527D01*
X21725166Y3799962D01*
X21709426Y3741220D01*
X21703033Y3725785D01*
X21672617Y3673103D01*
X21662448Y3659850D01*
X21651486Y3648887D01*
X21651483Y3648884D01*
X21619439Y3616841D01*
X21606185Y3606671D01*
X21553505Y3576256D01*
X21538069Y3569863D01*
X21471674Y3552073D01*
X21471669Y3552071D01*
X21468722Y3551282D01*
X21468551Y3551271D01*
X21467066Y3550839D01*
X21466375Y3550653D01*
X21466373Y3550654D01*
X21430887Y3541143D01*
X21429130Y3539765D01*
X21423463Y3538110D01*
X21405522Y3535544D01*
X19561793Y3535544D01*
X19529793Y3544118D01*
X19518474Y3550653D01*
X19474645Y3575958D01*
X19474644Y3575959D01*
X19474641Y3575960D01*
X19365160Y3605295D01*
X19365156Y3605296D01*
X19365154Y3605296D01*
X19251802Y3605296D01*
X19251800Y3605296D01*
X19251795Y3605295D01*
X19142315Y3575960D01*
X19142314Y3575960D01*
X19087163Y3544118D01*
X19055163Y3535544D01*
X17433185Y3535544D01*
X17412454Y3538995D01*
X13874417Y4750366D01*
X13709830Y4806718D01*
X21059481Y4806718D01*
X21059481Y4693371D01*
X21059482Y4693362D01*
X21088817Y4583882D01*
X21088817Y4583881D01*
X21088818Y4583878D01*
X21088819Y4583877D01*
X21145495Y4485711D01*
X21225648Y4405558D01*
X21323814Y4348882D01*
X21323816Y4348882D01*
X21323817Y4348881D01*
X21390819Y4330928D01*
X21433305Y4319544D01*
X21433308Y4319544D01*
X21546654Y4319544D01*
X21546657Y4319544D01*
X21656148Y4348882D01*
X21754314Y4405558D01*
X21834467Y4485711D01*
X21891143Y4583877D01*
X21920481Y4693368D01*
X21920481Y4806720D01*
X21891143Y4916211D01*
X21834467Y5014377D01*
X21754314Y5094530D01*
X21656148Y5151206D01*
X21656147Y5151207D01*
X21656144Y5151208D01*
X21546663Y5180543D01*
X21546659Y5180544D01*
X21546657Y5180544D01*
X21433305Y5180544D01*
X21433303Y5180544D01*
X21433298Y5180543D01*
X21323818Y5151208D01*
X21323817Y5151208D01*
X21225646Y5094529D01*
X21145496Y5014379D01*
X21088817Y4916208D01*
X21088817Y4916207D01*
X21059482Y4806727D01*
X21059481Y4806718D01*
X13709830Y4806718D01*
X11289266Y5635483D01*
X11289234Y5635493D01*
X11267593Y5640956D01*
X11267561Y5640962D01*
X11246836Y5644406D01*
X11246816Y5644409D01*
X11235669Y5645326D01*
X11224525Y5646242D01*
X11224522Y5646242D01*
X11224511Y5646243D01*
X6106182Y5643360D01*
X6060917Y5662080D01*
X6060891Y5662105D01*
X6036366Y5686630D01*
X6036365Y5686631D01*
X5938199Y5743307D01*
X5938198Y5743308D01*
X5938195Y5743309D01*
X5828714Y5772644D01*
X5828710Y5772645D01*
X5828708Y5772645D01*
X5715356Y5772645D01*
X5715354Y5772645D01*
X5715349Y5772644D01*
X5605869Y5743309D01*
X5605868Y5743309D01*
X5507698Y5686631D01*
X5507696Y5686629D01*
X5482794Y5661728D01*
X5437577Y5642984D01*
X2352431Y5641246D01*
X2310193Y5657132D01*
X2304808Y5661856D01*
X2291571Y5672015D01*
X2291557Y5672024D01*
X2291551Y5672029D01*
X2291546Y5672033D01*
X2291544Y5672034D01*
X2291537Y5672038D01*
X2226742Y5698875D01*
X2204458Y5701808D01*
X2178180Y5705267D01*
X2178177Y5705267D01*
X2178176Y5705267D01*
X2125424Y5701808D01*
X2119240Y5700151D01*
X2114176Y5698794D01*
X2097612Y5696613D01*
X2017042Y5696613D01*
X2000478Y5698794D01*
X1922650Y5719648D01*
X1907214Y5726042D01*
X1837439Y5766327D01*
X1824184Y5776497D01*
X1767212Y5833469D01*
X1757041Y5846724D01*
X1716751Y5916508D01*
X1710358Y5931944D01*
X1689508Y6009761D01*
X1687327Y6026325D01*
X1687327Y6106904D01*
X1689508Y6123468D01*
X1710359Y6201286D01*
X1716752Y6216721D01*
X1722231Y6226211D01*
X1757040Y6286505D01*
X1767205Y6299753D01*
X1810903Y6343450D01*
X1840477Y6387899D01*
X1859045Y6433227D01*
X1869156Y6485122D01*
X1869073Y6506320D01*
X3811544Y6506320D01*
X3811544Y6392973D01*
X3811545Y6392964D01*
X3840880Y6283484D01*
X3840880Y6283483D01*
X3840881Y6283480D01*
X3840882Y6283479D01*
X3897558Y6185313D01*
X3977711Y6105160D01*
X4075877Y6048484D01*
X4075879Y6048484D01*
X4075880Y6048483D01*
X4142882Y6030530D01*
X4185368Y6019146D01*
X4185371Y6019146D01*
X4298717Y6019146D01*
X4298720Y6019146D01*
X4408211Y6048484D01*
X4506377Y6105160D01*
X4517935Y6116718D01*
X12629481Y6116718D01*
X12629481Y6003371D01*
X12629482Y6003362D01*
X12658817Y5893882D01*
X12658817Y5893881D01*
X12658818Y5893878D01*
X12658819Y5893877D01*
X12715495Y5795711D01*
X12795648Y5715558D01*
X12893814Y5658882D01*
X12893816Y5658882D01*
X12893817Y5658881D01*
X12959688Y5641231D01*
X13003305Y5629544D01*
X13003308Y5629544D01*
X13116654Y5629544D01*
X13116657Y5629544D01*
X13226148Y5658882D01*
X13324314Y5715558D01*
X13404467Y5795711D01*
X13461143Y5893877D01*
X13490481Y6003368D01*
X13490481Y6116720D01*
X13461143Y6226211D01*
X13404467Y6324377D01*
X13324314Y6404530D01*
X13226148Y6461206D01*
X13226147Y6461207D01*
X13226144Y6461208D01*
X13116663Y6490543D01*
X13116659Y6490544D01*
X13116657Y6490544D01*
X13003305Y6490544D01*
X13003303Y6490544D01*
X13003298Y6490543D01*
X12893818Y6461208D01*
X12893817Y6461208D01*
X12795646Y6404529D01*
X12715496Y6324379D01*
X12658817Y6226208D01*
X12658817Y6226207D01*
X12629482Y6116727D01*
X12629481Y6116718D01*
X4517935Y6116718D01*
X4586530Y6185313D01*
X4643206Y6283479D01*
X4672544Y6392970D01*
X4672544Y6506322D01*
X4643206Y6615813D01*
X4586530Y6713979D01*
X4506377Y6794132D01*
X4408211Y6850808D01*
X4408210Y6850809D01*
X4408207Y6850810D01*
X4298726Y6880145D01*
X4298722Y6880146D01*
X4298720Y6880146D01*
X4185368Y6880146D01*
X4185366Y6880146D01*
X4185361Y6880145D01*
X4075881Y6850810D01*
X4075880Y6850810D01*
X3977709Y6794131D01*
X3897559Y6713981D01*
X3840880Y6615810D01*
X3840880Y6615809D01*
X3811545Y6506329D01*
X3811544Y6506320D01*
X1869073Y6506320D01*
X1866780Y7090191D01*
X13209138Y7090191D01*
X13209138Y6976844D01*
X13209139Y6976835D01*
X13238474Y6867355D01*
X13238474Y6867354D01*
X13238475Y6867351D01*
X13238476Y6867350D01*
X13295152Y6769184D01*
X13375305Y6689031D01*
X13473471Y6632355D01*
X13473473Y6632355D01*
X13473474Y6632354D01*
X13535207Y6615813D01*
X13582962Y6603017D01*
X13582965Y6603017D01*
X13696311Y6603017D01*
X13696314Y6603017D01*
X13805805Y6632355D01*
X13903971Y6689031D01*
X13984124Y6769184D01*
X13984124Y6769185D01*
X13985203Y6770263D01*
X14030458Y6789008D01*
X14075713Y6770263D01*
X14076791Y6769185D01*
X14076792Y6769184D01*
X14156945Y6689031D01*
X14255111Y6632355D01*
X14255113Y6632355D01*
X14255114Y6632354D01*
X14316847Y6615813D01*
X14364602Y6603017D01*
X14364605Y6603017D01*
X14477951Y6603017D01*
X14477954Y6603017D01*
X14587445Y6632355D01*
X14685611Y6689031D01*
X14765764Y6769184D01*
X14775829Y6786619D01*
X14814689Y6816438D01*
X14863254Y6810045D01*
X14886680Y6786620D01*
X14886681Y6786618D01*
X14896747Y6769184D01*
X14976900Y6689031D01*
X15075066Y6632355D01*
X15075068Y6632355D01*
X15075069Y6632354D01*
X15136802Y6615813D01*
X15184557Y6603017D01*
X15184560Y6603017D01*
X15297906Y6603017D01*
X15297909Y6603017D01*
X15407400Y6632355D01*
X15505566Y6689031D01*
X15585719Y6769184D01*
X15607279Y6806529D01*
X15646140Y6836348D01*
X15694704Y6829955D01*
X15718130Y6806529D01*
X15739689Y6769187D01*
X15739691Y6769185D01*
X15739692Y6769184D01*
X15819845Y6689031D01*
X15918011Y6632355D01*
X15918013Y6632355D01*
X15918014Y6632354D01*
X15979747Y6615813D01*
X16027502Y6603017D01*
X16027505Y6603017D01*
X16140851Y6603017D01*
X16140854Y6603017D01*
X16250345Y6632355D01*
X16348511Y6689031D01*
X16428664Y6769184D01*
X16475229Y6849838D01*
X16514088Y6879655D01*
X16562653Y6873262D01*
X16586078Y6849836D01*
X16617452Y6795494D01*
X16617455Y6795491D01*
X16697608Y6715338D01*
X16795774Y6658662D01*
X16795776Y6658662D01*
X16795777Y6658661D01*
X16862779Y6640708D01*
X16905265Y6629324D01*
X16905268Y6629324D01*
X17018614Y6629324D01*
X17018617Y6629324D01*
X17128108Y6658662D01*
X17226274Y6715338D01*
X17306427Y6795491D01*
X17363103Y6893657D01*
X17373459Y6932305D01*
X17403277Y6971166D01*
X17451842Y6977560D01*
X17490703Y6947742D01*
X17497097Y6932305D01*
X17506840Y6895944D01*
X17506840Y6895943D01*
X17506841Y6895940D01*
X17506842Y6895939D01*
X17563518Y6797773D01*
X17643671Y6717620D01*
X17741837Y6660944D01*
X17741839Y6660944D01*
X17741840Y6660943D01*
X17750357Y6658661D01*
X17851328Y6631606D01*
X17851331Y6631606D01*
X17964677Y6631606D01*
X17964680Y6631606D01*
X18074171Y6660944D01*
X18172337Y6717620D01*
X18252490Y6797773D01*
X18309166Y6895939D01*
X18338504Y7005430D01*
X18338504Y7118782D01*
X18309166Y7228273D01*
X18252490Y7326439D01*
X18172337Y7406592D01*
X18074171Y7463268D01*
X18074170Y7463269D01*
X18074167Y7463270D01*
X17964686Y7492605D01*
X17964682Y7492606D01*
X17964680Y7492606D01*
X17851328Y7492606D01*
X17851326Y7492606D01*
X17851321Y7492605D01*
X17741841Y7463270D01*
X17741840Y7463270D01*
X17643669Y7406591D01*
X17563519Y7326441D01*
X17506841Y7228271D01*
X17496485Y7189624D01*
X17466665Y7150764D01*
X17418100Y7144371D01*
X17379240Y7174191D01*
X17372847Y7189624D01*
X17363103Y7225991D01*
X17306427Y7324157D01*
X17226274Y7404310D01*
X17128108Y7460986D01*
X17128107Y7460987D01*
X17128104Y7460988D01*
X17018623Y7490323D01*
X17018619Y7490324D01*
X17018617Y7490324D01*
X16905265Y7490324D01*
X16905263Y7490324D01*
X16905258Y7490323D01*
X16795778Y7460988D01*
X16795777Y7460988D01*
X16697606Y7404309D01*
X16617452Y7324155D01*
X16570890Y7243506D01*
X16532029Y7213687D01*
X16483465Y7220081D01*
X16460039Y7243506D01*
X16459794Y7243931D01*
X16428664Y7297850D01*
X16348511Y7378003D01*
X16250345Y7434679D01*
X16250344Y7434680D01*
X16250341Y7434681D01*
X16140860Y7464016D01*
X16140856Y7464017D01*
X16140854Y7464017D01*
X16027502Y7464017D01*
X16027497Y7464017D01*
X16017434Y7461320D01*
X15968870Y7467716D01*
X15939052Y7506578D01*
X15945447Y7555140D01*
X15990450Y7633087D01*
X15990452Y7633094D01*
X16008957Y7702156D01*
X16019789Y7742580D01*
X16019789Y7855932D01*
X16001283Y7924997D01*
X18296372Y7924997D01*
X18296372Y7811650D01*
X18296373Y7811641D01*
X18325708Y7702161D01*
X18325708Y7702160D01*
X18325709Y7702157D01*
X18325710Y7702156D01*
X18382386Y7603990D01*
X18462539Y7523837D01*
X18560705Y7467161D01*
X18560707Y7467161D01*
X18560708Y7467160D01*
X18583750Y7460986D01*
X18670196Y7437823D01*
X18670199Y7437823D01*
X18783545Y7437823D01*
X18783548Y7437823D01*
X18893039Y7467161D01*
X18991205Y7523837D01*
X19071358Y7603990D01*
X19128034Y7702156D01*
X19157372Y7811647D01*
X19157372Y7924999D01*
X19128034Y8034490D01*
X19071358Y8132656D01*
X18991205Y8212809D01*
X18893039Y8269485D01*
X18893038Y8269486D01*
X18893035Y8269487D01*
X18783554Y8298822D01*
X18783550Y8298823D01*
X18783548Y8298823D01*
X18670196Y8298823D01*
X18670194Y8298823D01*
X18670189Y8298822D01*
X18560709Y8269487D01*
X18560708Y8269487D01*
X18462537Y8212808D01*
X18382387Y8132658D01*
X18325708Y8034487D01*
X18325708Y8034486D01*
X18296373Y7925006D01*
X18296372Y7924997D01*
X16001283Y7924997D01*
X15990451Y7965423D01*
X15933775Y8063589D01*
X15853622Y8143742D01*
X15755456Y8200418D01*
X15755455Y8200419D01*
X15755452Y8200420D01*
X15645971Y8229755D01*
X15645967Y8229756D01*
X15645965Y8229756D01*
X15532613Y8229756D01*
X15532611Y8229756D01*
X15532606Y8229755D01*
X15423126Y8200420D01*
X15423125Y8200420D01*
X15324954Y8143741D01*
X15244804Y8063591D01*
X15188125Y7965420D01*
X15188125Y7965419D01*
X15158790Y7855939D01*
X15158789Y7855930D01*
X15158789Y7742583D01*
X15158790Y7742574D01*
X15188125Y7633094D01*
X15188125Y7633093D01*
X15188126Y7633091D01*
X15188127Y7633089D01*
X15230702Y7559347D01*
X15237095Y7510784D01*
X15207276Y7471922D01*
X15188489Y7465544D01*
X15188608Y7465103D01*
X15075070Y7434681D01*
X15075069Y7434681D01*
X14976898Y7378002D01*
X14896748Y7297852D01*
X14886680Y7280414D01*
X14847817Y7250596D01*
X14799253Y7256991D01*
X14775829Y7280416D01*
X14765764Y7297850D01*
X14685611Y7378003D01*
X14587445Y7434679D01*
X14587444Y7434680D01*
X14587441Y7434681D01*
X14477960Y7464016D01*
X14477956Y7464017D01*
X14477954Y7464017D01*
X14364602Y7464017D01*
X14364600Y7464017D01*
X14364595Y7464016D01*
X14255115Y7434681D01*
X14255114Y7434681D01*
X14156943Y7378002D01*
X14075713Y7296771D01*
X14030458Y7278026D01*
X13985203Y7296771D01*
X13903972Y7378002D01*
X13903971Y7378003D01*
X13805805Y7434679D01*
X13805804Y7434680D01*
X13805801Y7434681D01*
X13696320Y7464016D01*
X13696316Y7464017D01*
X13696314Y7464017D01*
X13582962Y7464017D01*
X13582960Y7464017D01*
X13582955Y7464016D01*
X13473475Y7434681D01*
X13473474Y7434681D01*
X13375303Y7378002D01*
X13295153Y7297852D01*
X13238474Y7199681D01*
X13238474Y7199680D01*
X13209139Y7090200D01*
X13209138Y7090191D01*
X1866780Y7090191D01*
X1864601Y7645091D01*
X5060941Y7645091D01*
X5060941Y7531744D01*
X5060942Y7531735D01*
X5090277Y7422255D01*
X5090277Y7422254D01*
X5090278Y7422251D01*
X5090279Y7422250D01*
X5146955Y7324084D01*
X5227108Y7243931D01*
X5325274Y7187255D01*
X5325276Y7187255D01*
X5325277Y7187254D01*
X5392279Y7169301D01*
X5434765Y7157917D01*
X5434768Y7157917D01*
X5548114Y7157917D01*
X5548117Y7157917D01*
X5657608Y7187255D01*
X5755774Y7243931D01*
X5835927Y7324084D01*
X5892603Y7422250D01*
X5921941Y7531741D01*
X5921941Y7645093D01*
X5892603Y7754584D01*
X5835927Y7852750D01*
X5755774Y7932903D01*
X5657608Y7989579D01*
X5657607Y7989580D01*
X5657604Y7989581D01*
X5548123Y8018916D01*
X5548119Y8018917D01*
X5548117Y8018917D01*
X5434765Y8018917D01*
X5434763Y8018917D01*
X5434758Y8018916D01*
X5325278Y7989581D01*
X5325277Y7989581D01*
X5227106Y7932902D01*
X5146956Y7852752D01*
X5090277Y7754581D01*
X5090277Y7754580D01*
X5060942Y7645100D01*
X5060941Y7645091D01*
X1864601Y7645091D01*
X1862396Y8206759D01*
X1861174Y8212808D01*
X1852264Y8256927D01*
X1851981Y8258327D01*
X1833236Y8303331D01*
X1803965Y8347044D01*
X1777210Y8373799D01*
X1767039Y8387054D01*
X1755034Y8407847D01*
X1726751Y8456835D01*
X1720359Y8472269D01*
X1718615Y8478777D01*
X1700944Y8544729D01*
X1699508Y8550089D01*
X1697327Y8566653D01*
X1697327Y8647232D01*
X1698756Y8658085D01*
X4932191Y8658085D01*
X4932191Y8544738D01*
X4932192Y8544729D01*
X4961527Y8435249D01*
X4961527Y8435248D01*
X4961528Y8435245D01*
X4961529Y8435244D01*
X5018205Y8337078D01*
X5098358Y8256925D01*
X5196524Y8200249D01*
X5196526Y8200249D01*
X5196527Y8200248D01*
X5263529Y8182295D01*
X5306015Y8170911D01*
X5306018Y8170911D01*
X5419364Y8170911D01*
X5419367Y8170911D01*
X5528858Y8200249D01*
X5627024Y8256925D01*
X5667005Y8296906D01*
X5712259Y8315652D01*
X5757514Y8296907D01*
X5774079Y8268218D01*
X5777371Y8255930D01*
X5777373Y8255927D01*
X5834049Y8157761D01*
X5914202Y8077608D01*
X6012368Y8020932D01*
X6012370Y8020932D01*
X6012371Y8020931D01*
X6043728Y8012529D01*
X6121859Y7991594D01*
X6121862Y7991594D01*
X6235208Y7991594D01*
X6235211Y7991594D01*
X6344702Y8020932D01*
X6442868Y8077608D01*
X6523021Y8157761D01*
X6567826Y8235366D01*
X7620391Y8235366D01*
X7620391Y8122019D01*
X7620392Y8122010D01*
X7649727Y8012530D01*
X7649727Y8012529D01*
X7649728Y8012526D01*
X7649729Y8012525D01*
X7706405Y7914359D01*
X7786558Y7834206D01*
X7884724Y7777530D01*
X7884726Y7777530D01*
X7884727Y7777529D01*
X7951729Y7759576D01*
X7994215Y7748192D01*
X7994218Y7748192D01*
X8107564Y7748192D01*
X8107567Y7748192D01*
X8217058Y7777530D01*
X8315224Y7834206D01*
X8395377Y7914359D01*
X8452053Y8012525D01*
X8481391Y8122016D01*
X8481391Y8235368D01*
X8452053Y8344859D01*
X8395377Y8443025D01*
X8315224Y8523178D01*
X8263020Y8553318D01*
X12638554Y8553318D01*
X12638554Y8439971D01*
X12638555Y8439962D01*
X12667890Y8330482D01*
X12667890Y8330481D01*
X12667891Y8330478D01*
X12667892Y8330477D01*
X12724568Y8232311D01*
X12804721Y8152158D01*
X12902887Y8095482D01*
X12902889Y8095482D01*
X12902890Y8095481D01*
X12969586Y8077610D01*
X13012378Y8066144D01*
X13012381Y8066144D01*
X13125727Y8066144D01*
X13125730Y8066144D01*
X13235221Y8095482D01*
X13333387Y8152158D01*
X13413540Y8232311D01*
X13470216Y8330477D01*
X13499554Y8439968D01*
X13499554Y8553320D01*
X13490193Y8588257D01*
X13473155Y8651846D01*
X13470217Y8662808D01*
X13470216Y8662809D01*
X13470216Y8662811D01*
X13469407Y8664213D01*
X14078933Y8664213D01*
X14078933Y8550866D01*
X14078934Y8550857D01*
X14108269Y8441377D01*
X14108269Y8441376D01*
X14108270Y8441373D01*
X14108271Y8441372D01*
X14164947Y8343206D01*
X14245100Y8263053D01*
X14343266Y8206377D01*
X14343268Y8206377D01*
X14343269Y8206376D01*
X14410271Y8188423D01*
X14452757Y8177039D01*
X14452760Y8177039D01*
X14566106Y8177039D01*
X14566109Y8177039D01*
X14675600Y8206377D01*
X14773766Y8263053D01*
X14853919Y8343206D01*
X14910595Y8441372D01*
X14939933Y8550863D01*
X14939933Y8664215D01*
X14910595Y8773706D01*
X14853919Y8871872D01*
X14773766Y8952025D01*
X14675600Y9008701D01*
X14675599Y9008702D01*
X14675596Y9008703D01*
X14566115Y9038038D01*
X14566111Y9038039D01*
X14566109Y9038039D01*
X14452757Y9038039D01*
X14452755Y9038039D01*
X14452750Y9038038D01*
X14343270Y9008703D01*
X14343269Y9008703D01*
X14245098Y8952024D01*
X14164948Y8871874D01*
X14108269Y8773703D01*
X14108269Y8773702D01*
X14078934Y8664222D01*
X14078933Y8664213D01*
X13469407Y8664213D01*
X13413540Y8760977D01*
X13333387Y8841130D01*
X13235221Y8897806D01*
X13235220Y8897807D01*
X13235217Y8897808D01*
X13125736Y8927143D01*
X13125732Y8927144D01*
X13125730Y8927144D01*
X13012378Y8927144D01*
X13012376Y8927144D01*
X13012371Y8927143D01*
X12902891Y8897808D01*
X12902890Y8897808D01*
X12804719Y8841129D01*
X12724569Y8760979D01*
X12667890Y8662808D01*
X12667890Y8662807D01*
X12638555Y8553327D01*
X12638554Y8553318D01*
X8263020Y8553318D01*
X8217058Y8579854D01*
X8217057Y8579855D01*
X8217054Y8579856D01*
X8107573Y8609191D01*
X8107569Y8609192D01*
X8107567Y8609192D01*
X7994215Y8609192D01*
X7994213Y8609192D01*
X7994208Y8609191D01*
X7884728Y8579856D01*
X7884727Y8579856D01*
X7786556Y8523177D01*
X7706406Y8443027D01*
X7649727Y8344856D01*
X7649727Y8344855D01*
X7620392Y8235375D01*
X7620391Y8235366D01*
X6567826Y8235366D01*
X6579697Y8255927D01*
X6579965Y8256925D01*
X6595700Y8315652D01*
X6609035Y8365418D01*
X6609035Y8478770D01*
X6579697Y8588261D01*
X6523021Y8686427D01*
X6442868Y8766580D01*
X6344702Y8823256D01*
X6344701Y8823257D01*
X6344698Y8823258D01*
X6235217Y8852593D01*
X6235213Y8852594D01*
X6235211Y8852594D01*
X6121859Y8852594D01*
X6121857Y8852594D01*
X6121852Y8852593D01*
X6012372Y8823258D01*
X6012371Y8823258D01*
X6012368Y8823256D01*
X5915926Y8767575D01*
X5914199Y8766578D01*
X5914197Y8766577D01*
X5874219Y8726599D01*
X5828964Y8707854D01*
X5783710Y8726600D01*
X5767145Y8755291D01*
X5765621Y8760977D01*
X5763853Y8767578D01*
X5707177Y8865744D01*
X5627024Y8945897D01*
X5528858Y9002573D01*
X5528857Y9002574D01*
X5528854Y9002575D01*
X5419373Y9031910D01*
X5419369Y9031911D01*
X5419367Y9031911D01*
X5306015Y9031911D01*
X5306013Y9031911D01*
X5306008Y9031910D01*
X5196528Y9002575D01*
X5196527Y9002575D01*
X5098356Y8945896D01*
X5018206Y8865746D01*
X4961527Y8767575D01*
X4961527Y8767574D01*
X4932192Y8658094D01*
X4932191Y8658085D01*
X1698756Y8658085D01*
X1699507Y8663794D01*
X1720359Y8741616D01*
X1726752Y8757049D01*
X1732253Y8766577D01*
X1767040Y8826833D01*
X1777205Y8840081D01*
X1801006Y8863881D01*
X1830580Y8908330D01*
X1843820Y8940651D01*
X1849145Y8953650D01*
X1849145Y8953651D01*
X1849144Y8953651D01*
X1849148Y8953658D01*
X1859259Y9005553D01*
X1857601Y9427823D01*
X16512058Y9427823D01*
X16512058Y9314476D01*
X16512059Y9314467D01*
X16541394Y9204987D01*
X16541394Y9204986D01*
X16541395Y9204983D01*
X16541396Y9204982D01*
X16598072Y9106816D01*
X16678225Y9026663D01*
X16776391Y8969987D01*
X16776393Y8969987D01*
X16776394Y8969986D01*
X16837332Y8953658D01*
X16885882Y8940649D01*
X16885885Y8940649D01*
X16999231Y8940649D01*
X16999234Y8940649D01*
X17108725Y8969987D01*
X17206891Y9026663D01*
X17287044Y9106816D01*
X17343720Y9204982D01*
X17373058Y9314473D01*
X17373058Y9427825D01*
X17343720Y9537316D01*
X17287044Y9635482D01*
X17206891Y9715635D01*
X17108725Y9772311D01*
X17108724Y9772312D01*
X17108721Y9772313D01*
X17069959Y9782699D01*
X16999240Y9801648D01*
X16999236Y9801649D01*
X16999234Y9801649D01*
X16885882Y9801649D01*
X16885880Y9801649D01*
X16885875Y9801648D01*
X16776395Y9772313D01*
X16776394Y9772313D01*
X16678223Y9715634D01*
X16598073Y9635484D01*
X16541394Y9537313D01*
X16541394Y9537312D01*
X16512059Y9427832D01*
X16512058Y9427823D01*
X1857601Y9427823D01*
X1853659Y10431852D01*
X4454347Y10431852D01*
X4454347Y10318505D01*
X4454348Y10318496D01*
X4483683Y10209016D01*
X4483683Y10209015D01*
X4483684Y10209012D01*
X4483685Y10209011D01*
X4540361Y10110845D01*
X4620514Y10030692D01*
X4718680Y9974016D01*
X4718682Y9974016D01*
X4718683Y9974015D01*
X4781188Y9957267D01*
X4828171Y9944678D01*
X4828174Y9944678D01*
X4941520Y9944678D01*
X4941523Y9944678D01*
X5051014Y9974016D01*
X5149180Y10030692D01*
X5229333Y10110845D01*
X5286009Y10209011D01*
X5315347Y10318502D01*
X5315347Y10415103D01*
X10390592Y10415103D01*
X10390592Y10301756D01*
X10390593Y10301747D01*
X10419928Y10192267D01*
X10419928Y10192266D01*
X10419929Y10192263D01*
X10419930Y10192262D01*
X10476606Y10094096D01*
X10556759Y10013943D01*
X10654925Y9957267D01*
X10654927Y9957267D01*
X10654928Y9957266D01*
X10701900Y9944680D01*
X10764416Y9927929D01*
X10764419Y9927929D01*
X10877765Y9927929D01*
X10877768Y9927929D01*
X10987259Y9957267D01*
X11085425Y10013943D01*
X11112270Y10040788D01*
X13363607Y10040788D01*
X13363607Y9927441D01*
X13363608Y9927432D01*
X13392943Y9817952D01*
X13392943Y9817951D01*
X13392944Y9817948D01*
X13392945Y9817947D01*
X13449621Y9719781D01*
X13529774Y9639628D01*
X13627940Y9582952D01*
X13627942Y9582952D01*
X13627943Y9582951D01*
X13694945Y9564998D01*
X13737431Y9553614D01*
X13737434Y9553614D01*
X13850780Y9553614D01*
X13850783Y9553614D01*
X13960274Y9582952D01*
X14058440Y9639628D01*
X14138593Y9719781D01*
X14195269Y9817947D01*
X14201264Y9840321D01*
X19214722Y9840321D01*
X19214722Y9726974D01*
X19214723Y9726965D01*
X19244058Y9617485D01*
X19244058Y9617484D01*
X19244059Y9617481D01*
X19244060Y9617480D01*
X19300736Y9519314D01*
X19380889Y9439161D01*
X19479055Y9382485D01*
X19479057Y9382485D01*
X19479058Y9382484D01*
X19546060Y9364531D01*
X19588546Y9353147D01*
X19588549Y9353147D01*
X19701895Y9353147D01*
X19701898Y9353147D01*
X19811389Y9382485D01*
X19909555Y9439161D01*
X19989708Y9519314D01*
X20046384Y9617480D01*
X20075722Y9726971D01*
X20075722Y9840323D01*
X20046384Y9949814D01*
X19989708Y10047980D01*
X19909555Y10128133D01*
X19811389Y10184809D01*
X19811388Y10184810D01*
X19811385Y10184811D01*
X19701904Y10214146D01*
X19701900Y10214147D01*
X19701898Y10214147D01*
X19588546Y10214147D01*
X19588544Y10214147D01*
X19588539Y10214146D01*
X19479059Y10184811D01*
X19479058Y10184811D01*
X19380887Y10128132D01*
X19300737Y10047982D01*
X19244058Y9949811D01*
X19244058Y9949810D01*
X19214723Y9840330D01*
X19214722Y9840321D01*
X14201264Y9840321D01*
X14224607Y9927438D01*
X14224607Y10040790D01*
X14195269Y10150281D01*
X14138593Y10248447D01*
X14058440Y10328600D01*
X13960274Y10385276D01*
X13960273Y10385277D01*
X13960270Y10385278D01*
X13850789Y10414613D01*
X13850785Y10414614D01*
X13850783Y10414614D01*
X13737431Y10414614D01*
X13737429Y10414614D01*
X13737424Y10414613D01*
X13627944Y10385278D01*
X13627943Y10385278D01*
X13529772Y10328599D01*
X13449622Y10248449D01*
X13392943Y10150278D01*
X13392943Y10150277D01*
X13363608Y10040797D01*
X13363607Y10040788D01*
X11112270Y10040788D01*
X11165578Y10094096D01*
X11222254Y10192262D01*
X11251592Y10301753D01*
X11251592Y10415105D01*
X11222254Y10524596D01*
X11165578Y10622762D01*
X11085425Y10702915D01*
X10987259Y10759591D01*
X10987257Y10759592D01*
X10987255Y10759593D01*
X10879256Y10788531D01*
X12591897Y10788531D01*
X12591897Y10675184D01*
X12591898Y10675175D01*
X12621233Y10565695D01*
X12621233Y10565694D01*
X12621234Y10565691D01*
X12621235Y10565690D01*
X12677911Y10467524D01*
X12758064Y10387371D01*
X12856230Y10330695D01*
X12856232Y10330695D01*
X12856233Y10330694D01*
X12864052Y10328599D01*
X12965721Y10301357D01*
X12965724Y10301357D01*
X13079070Y10301357D01*
X13079073Y10301357D01*
X13188564Y10330695D01*
X13286730Y10387371D01*
X13366883Y10467524D01*
X13423559Y10565690D01*
X13452897Y10675181D01*
X13452897Y10788533D01*
X13423559Y10898024D01*
X13366883Y10996190D01*
X13303910Y11059163D01*
X15021789Y11059163D01*
X15021789Y10945816D01*
X15021790Y10945807D01*
X15051125Y10836327D01*
X15051125Y10836326D01*
X15051126Y10836323D01*
X15051127Y10836322D01*
X15107803Y10738156D01*
X15187956Y10658003D01*
X15286122Y10601327D01*
X15286124Y10601327D01*
X15286125Y10601326D01*
X15297217Y10598354D01*
X15395613Y10571989D01*
X15395616Y10571989D01*
X15508962Y10571989D01*
X15508965Y10571989D01*
X15618456Y10601327D01*
X15716622Y10658003D01*
X15796775Y10738156D01*
X15853451Y10836322D01*
X15882789Y10945813D01*
X15882789Y10984083D01*
X16720231Y10984083D01*
X16720231Y10870736D01*
X16720232Y10870727D01*
X16749567Y10761247D01*
X16749567Y10761246D01*
X16749568Y10761243D01*
X16749569Y10761242D01*
X16806245Y10663076D01*
X16886398Y10582923D01*
X16984564Y10526247D01*
X16984566Y10526247D01*
X16984567Y10526246D01*
X17051569Y10508293D01*
X17094055Y10496909D01*
X17094058Y10496909D01*
X17207404Y10496909D01*
X17207407Y10496909D01*
X17316898Y10526247D01*
X17415064Y10582923D01*
X17430495Y10598354D01*
X18514968Y10598354D01*
X18514968Y10485007D01*
X18514969Y10484998D01*
X18544304Y10375518D01*
X18544304Y10375517D01*
X18544305Y10375514D01*
X18544306Y10375513D01*
X18600982Y10277347D01*
X18681135Y10197194D01*
X18779301Y10140518D01*
X18779303Y10140518D01*
X18779304Y10140517D01*
X18825522Y10128133D01*
X18888792Y10111180D01*
X18888795Y10111180D01*
X19002141Y10111180D01*
X19002144Y10111180D01*
X19111635Y10140518D01*
X19209801Y10197194D01*
X19289954Y10277347D01*
X19346630Y10375513D01*
X19375968Y10485004D01*
X19375968Y10598356D01*
X19346630Y10707847D01*
X19289954Y10806013D01*
X19209801Y10886166D01*
X19198948Y10892432D01*
X19169130Y10931295D01*
X19175525Y10979859D01*
X19214388Y11009677D01*
X19247513Y11009677D01*
X19258508Y11006730D01*
X19258511Y11006730D01*
X19371857Y11006730D01*
X19371860Y11006730D01*
X19481351Y11036068D01*
X19579517Y11092744D01*
X19659670Y11172897D01*
X19716346Y11271063D01*
X19745684Y11380554D01*
X19745684Y11493906D01*
X19716346Y11603397D01*
X19659670Y11701563D01*
X19579517Y11781716D01*
X19481351Y11838392D01*
X19481350Y11838393D01*
X19481347Y11838394D01*
X19371866Y11867729D01*
X19371862Y11867730D01*
X19371860Y11867730D01*
X19258508Y11867730D01*
X19258506Y11867730D01*
X19258501Y11867729D01*
X19149021Y11838394D01*
X19149020Y11838394D01*
X19050849Y11781715D01*
X18970699Y11701565D01*
X18914020Y11603394D01*
X18914020Y11603393D01*
X18884685Y11493913D01*
X18884684Y11493904D01*
X18884684Y11380557D01*
X18884685Y11380548D01*
X18914020Y11271068D01*
X18914020Y11271067D01*
X18914021Y11271064D01*
X18914022Y11271063D01*
X18970698Y11172897D01*
X19050851Y11092744D01*
X19058328Y11088427D01*
X19061702Y11086479D01*
X19091520Y11047618D01*
X19085126Y10999053D01*
X19046265Y10969235D01*
X19013137Y10969235D01*
X19002150Y10972179D01*
X19002146Y10972180D01*
X19002144Y10972180D01*
X18888792Y10972180D01*
X18888790Y10972180D01*
X18888785Y10972179D01*
X18779305Y10942844D01*
X18779304Y10942844D01*
X18681133Y10886165D01*
X18600983Y10806015D01*
X18544304Y10707844D01*
X18544304Y10707843D01*
X18514969Y10598363D01*
X18514968Y10598354D01*
X17430495Y10598354D01*
X17495217Y10663076D01*
X17551893Y10761242D01*
X17581231Y10870733D01*
X17581231Y10984085D01*
X17551893Y11093576D01*
X17495217Y11191742D01*
X17415064Y11271895D01*
X17316898Y11328571D01*
X17316897Y11328572D01*
X17316894Y11328573D01*
X17207413Y11357908D01*
X17207409Y11357909D01*
X17207407Y11357909D01*
X17094055Y11357909D01*
X17094053Y11357909D01*
X17094048Y11357908D01*
X16984568Y11328573D01*
X16984567Y11328573D01*
X16886396Y11271894D01*
X16806246Y11191744D01*
X16749567Y11093573D01*
X16749567Y11093572D01*
X16720232Y10984092D01*
X16720231Y10984083D01*
X15882789Y10984083D01*
X15882789Y11059165D01*
X15853451Y11168656D01*
X15796775Y11266822D01*
X15716622Y11346975D01*
X15618456Y11403651D01*
X15618455Y11403652D01*
X15618452Y11403653D01*
X15508971Y11432988D01*
X15508967Y11432989D01*
X15508965Y11432989D01*
X15395613Y11432989D01*
X15395611Y11432989D01*
X15395606Y11432988D01*
X15286126Y11403653D01*
X15286125Y11403653D01*
X15187954Y11346974D01*
X15107804Y11266824D01*
X15051125Y11168653D01*
X15051125Y11168652D01*
X15021790Y11059172D01*
X15021789Y11059163D01*
X13303910Y11059163D01*
X13286730Y11076343D01*
X13188564Y11133019D01*
X13188563Y11133020D01*
X13188560Y11133021D01*
X13079079Y11162356D01*
X13079075Y11162357D01*
X13079073Y11162357D01*
X12965721Y11162357D01*
X12965719Y11162357D01*
X12965714Y11162356D01*
X12856234Y11133021D01*
X12856233Y11133021D01*
X12758062Y11076342D01*
X12677912Y10996192D01*
X12621233Y10898021D01*
X12621233Y10898020D01*
X12591898Y10788540D01*
X12591897Y10788531D01*
X10879256Y10788531D01*
X10877774Y10788928D01*
X10877770Y10788929D01*
X10877768Y10788929D01*
X10764416Y10788929D01*
X10764414Y10788929D01*
X10764409Y10788928D01*
X10654929Y10759593D01*
X10654928Y10759593D01*
X10556757Y10702914D01*
X10476607Y10622764D01*
X10419928Y10524593D01*
X10419928Y10524592D01*
X10390593Y10415112D01*
X10390592Y10415103D01*
X5315347Y10415103D01*
X5315347Y10431854D01*
X5286009Y10541345D01*
X5229333Y10639511D01*
X5149180Y10719664D01*
X5051014Y10776340D01*
X5051013Y10776341D01*
X5051010Y10776342D01*
X4941529Y10805677D01*
X4941525Y10805678D01*
X4941523Y10805678D01*
X4828171Y10805678D01*
X4828169Y10805678D01*
X4828164Y10805677D01*
X4718684Y10776342D01*
X4718683Y10776342D01*
X4620512Y10719663D01*
X4540362Y10639513D01*
X4483683Y10541342D01*
X4483683Y10541341D01*
X4454348Y10431861D01*
X4454347Y10431852D01*
X1853659Y10431852D01*
X1852325Y10771502D01*
X1851347Y10776342D01*
X1841910Y10823069D01*
X1836388Y10836326D01*
X1823165Y10868074D01*
X1793894Y10911787D01*
X1777210Y10928471D01*
X1767039Y10941726D01*
X1727808Y11009676D01*
X1726751Y11011507D01*
X1720359Y11026941D01*
X1711725Y11059163D01*
X1702728Y11092744D01*
X1699508Y11104761D01*
X1697327Y11121325D01*
X1697327Y11201904D01*
X1699508Y11218468D01*
X1720359Y11296289D01*
X1726749Y11311716D01*
X1767042Y11381508D01*
X1777213Y11394760D01*
X1791014Y11408560D01*
X1820589Y11453010D01*
X1837341Y11493904D01*
X1839154Y11498330D01*
X1839154Y11498331D01*
X1839153Y11498331D01*
X1839157Y11498338D01*
X1849268Y11550233D01*
X1847240Y12066718D01*
X4159481Y12066718D01*
X4159481Y11953371D01*
X4159482Y11953362D01*
X4188817Y11843882D01*
X4188817Y11843881D01*
X4188818Y11843878D01*
X4188819Y11843877D01*
X4245495Y11745711D01*
X4325648Y11665558D01*
X4423814Y11608882D01*
X4423816Y11608882D01*
X4423817Y11608881D01*
X4444299Y11603393D01*
X4533305Y11579544D01*
X4533308Y11579544D01*
X4646654Y11579544D01*
X4646657Y11579544D01*
X4756148Y11608882D01*
X4854314Y11665558D01*
X4916953Y11728197D01*
X10469354Y11728197D01*
X10469354Y11614850D01*
X10469355Y11614841D01*
X10498690Y11505361D01*
X10498690Y11505360D01*
X10498691Y11505357D01*
X10498692Y11505356D01*
X10555368Y11407190D01*
X10635521Y11327037D01*
X10733687Y11270361D01*
X10733689Y11270361D01*
X10733690Y11270360D01*
X10800692Y11252407D01*
X10843178Y11241023D01*
X10843181Y11241023D01*
X10956527Y11241023D01*
X10956530Y11241023D01*
X11066021Y11270361D01*
X11164187Y11327037D01*
X11244340Y11407190D01*
X11301016Y11505356D01*
X11330354Y11614847D01*
X11330354Y11728199D01*
X11301016Y11837690D01*
X11244340Y11935856D01*
X11164187Y12016009D01*
X11066021Y12072685D01*
X11066020Y12072686D01*
X11066017Y12072687D01*
X10956536Y12102022D01*
X10956532Y12102023D01*
X10956530Y12102023D01*
X10843178Y12102023D01*
X10843176Y12102023D01*
X10843171Y12102022D01*
X10733691Y12072687D01*
X10733690Y12072687D01*
X10635519Y12016008D01*
X10555369Y11935858D01*
X10498690Y11837687D01*
X10498690Y11837686D01*
X10469355Y11728206D01*
X10469354Y11728197D01*
X4916953Y11728197D01*
X4934467Y11745711D01*
X4991143Y11843877D01*
X5020481Y11953368D01*
X5020481Y12066720D01*
X4991143Y12176211D01*
X4934467Y12274377D01*
X4854314Y12354530D01*
X4756148Y12411206D01*
X4756147Y12411207D01*
X4756144Y12411208D01*
X4646663Y12440543D01*
X4646659Y12440544D01*
X4646657Y12440544D01*
X4533305Y12440544D01*
X4533303Y12440544D01*
X4533298Y12440543D01*
X4423818Y12411208D01*
X4423817Y12411208D01*
X4325646Y12354529D01*
X4245496Y12274379D01*
X4188817Y12176208D01*
X4188817Y12176207D01*
X4159482Y12066727D01*
X4159481Y12066718D01*
X1847240Y12066718D01*
X1845192Y12588244D01*
X7448972Y12588244D01*
X7448972Y12474897D01*
X7448973Y12474888D01*
X7478308Y12365408D01*
X7478308Y12365407D01*
X7478309Y12365404D01*
X7478310Y12365403D01*
X7534986Y12267237D01*
X7615139Y12187084D01*
X7713305Y12130408D01*
X7713307Y12130408D01*
X7713308Y12130407D01*
X7780310Y12112454D01*
X7822796Y12101070D01*
X7822799Y12101070D01*
X7936145Y12101070D01*
X7936148Y12101070D01*
X8045639Y12130408D01*
X8143805Y12187084D01*
X8159645Y12202924D01*
X12565688Y12202924D01*
X12565688Y12089577D01*
X12565689Y12089568D01*
X12595024Y11980088D01*
X12595024Y11980087D01*
X12595025Y11980084D01*
X12595026Y11980083D01*
X12651702Y11881917D01*
X12731855Y11801764D01*
X12830021Y11745088D01*
X12830023Y11745088D01*
X12830024Y11745087D01*
X12893052Y11728199D01*
X12939512Y11715750D01*
X12939515Y11715750D01*
X13052861Y11715750D01*
X13052864Y11715750D01*
X13162355Y11745088D01*
X13260521Y11801764D01*
X13340674Y11881917D01*
X13397350Y11980083D01*
X13399128Y11986718D01*
X14489481Y11986718D01*
X14489481Y11873371D01*
X14489482Y11873362D01*
X14518817Y11763882D01*
X14518817Y11763881D01*
X14518818Y11763878D01*
X14518819Y11763877D01*
X14575495Y11665711D01*
X14655648Y11585558D01*
X14753814Y11528882D01*
X14753816Y11528882D01*
X14753817Y11528881D01*
X14820819Y11510928D01*
X14863305Y11499544D01*
X14863308Y11499544D01*
X14976654Y11499544D01*
X14976657Y11499544D01*
X15086148Y11528882D01*
X15184314Y11585558D01*
X15264467Y11665711D01*
X15311325Y11746871D01*
X15749996Y11746871D01*
X15749996Y11633524D01*
X15749997Y11633515D01*
X15779332Y11524035D01*
X15779332Y11524034D01*
X15779333Y11524031D01*
X15779334Y11524030D01*
X15836010Y11425864D01*
X15916163Y11345711D01*
X16014329Y11289035D01*
X16014331Y11289035D01*
X16014332Y11289034D01*
X16078296Y11271895D01*
X16123820Y11259697D01*
X16123823Y11259697D01*
X16237169Y11259697D01*
X16237172Y11259697D01*
X16346663Y11289035D01*
X16444829Y11345711D01*
X16524982Y11425864D01*
X16581658Y11524030D01*
X16610996Y11633521D01*
X16610996Y11746873D01*
X16581658Y11856364D01*
X16524982Y11954530D01*
X16444829Y12034683D01*
X16346663Y12091359D01*
X16346662Y12091360D01*
X16346659Y12091361D01*
X16237178Y12120696D01*
X16237174Y12120697D01*
X16237172Y12120697D01*
X16123820Y12120697D01*
X16123818Y12120697D01*
X16123813Y12120696D01*
X16014333Y12091361D01*
X16014332Y12091361D01*
X15916161Y12034682D01*
X15836011Y11954532D01*
X15779332Y11856361D01*
X15779332Y11856360D01*
X15749997Y11746880D01*
X15749996Y11746871D01*
X15311325Y11746871D01*
X15321143Y11763877D01*
X15321282Y11764394D01*
X15322150Y11767633D01*
X15322150Y11767634D01*
X15342580Y11843882D01*
X15350481Y11873368D01*
X15350481Y11986720D01*
X15321143Y12096211D01*
X15264467Y12194377D01*
X15184314Y12274530D01*
X15086148Y12331206D01*
X15086147Y12331207D01*
X15086144Y12331208D01*
X14976663Y12360543D01*
X14976659Y12360544D01*
X14976657Y12360544D01*
X14863305Y12360544D01*
X14863303Y12360544D01*
X14863298Y12360543D01*
X14753818Y12331208D01*
X14753817Y12331208D01*
X14655646Y12274529D01*
X14575496Y12194379D01*
X14518817Y12096208D01*
X14518817Y12096207D01*
X14489482Y11986727D01*
X14489481Y11986718D01*
X13399128Y11986718D01*
X13426688Y12089574D01*
X13426688Y12202926D01*
X13397350Y12312417D01*
X13340674Y12410583D01*
X13260521Y12490736D01*
X13162355Y12547412D01*
X13162354Y12547413D01*
X13162351Y12547414D01*
X13052870Y12576749D01*
X13052866Y12576750D01*
X13052864Y12576750D01*
X12939512Y12576750D01*
X12939510Y12576750D01*
X12939505Y12576749D01*
X12830025Y12547414D01*
X12830024Y12547414D01*
X12731853Y12490735D01*
X12651703Y12410585D01*
X12595024Y12312414D01*
X12595024Y12312413D01*
X12565689Y12202933D01*
X12565688Y12202924D01*
X8159645Y12202924D01*
X8223958Y12267237D01*
X8280634Y12365403D01*
X8309972Y12474894D01*
X8309972Y12588246D01*
X8280634Y12697737D01*
X8223958Y12795903D01*
X8143805Y12876056D01*
X8045639Y12932732D01*
X8045638Y12932733D01*
X8045635Y12932734D01*
X7936154Y12962069D01*
X7936150Y12962070D01*
X7936148Y12962070D01*
X7822796Y12962070D01*
X7822794Y12962070D01*
X7822789Y12962069D01*
X7713309Y12932734D01*
X7713308Y12932734D01*
X7615137Y12876055D01*
X7534987Y12795905D01*
X7478308Y12697734D01*
X7478308Y12697733D01*
X7448973Y12588253D01*
X7448972Y12588244D01*
X1845192Y12588244D01*
X1842327Y13317998D01*
X1831912Y13369566D01*
X1819184Y13400123D01*
X4481996Y13400123D01*
X4481996Y13286776D01*
X4481997Y13286767D01*
X4511332Y13177287D01*
X4511332Y13177286D01*
X4511333Y13177283D01*
X4511334Y13177282D01*
X4568010Y13079116D01*
X4648163Y12998963D01*
X4746329Y12942287D01*
X4746331Y12942287D01*
X4746332Y12942286D01*
X4813334Y12924333D01*
X4855820Y12912949D01*
X4855823Y12912949D01*
X4969169Y12912949D01*
X4969172Y12912949D01*
X5078663Y12942287D01*
X5176829Y12998963D01*
X5256982Y13079116D01*
X5273233Y13107263D01*
X10387113Y13107263D01*
X10387113Y12993916D01*
X10387114Y12993907D01*
X10416449Y12884427D01*
X10416449Y12884426D01*
X10416450Y12884423D01*
X10416451Y12884422D01*
X10473127Y12786256D01*
X10553280Y12706103D01*
X10651446Y12649427D01*
X10651448Y12649427D01*
X10651449Y12649426D01*
X10718451Y12631473D01*
X10760937Y12620089D01*
X10760940Y12620089D01*
X10874286Y12620089D01*
X10874289Y12620089D01*
X10983780Y12649427D01*
X10985807Y12650597D01*
X16664124Y12650597D01*
X16664124Y12537250D01*
X16664125Y12537241D01*
X16693460Y12427761D01*
X16693460Y12427760D01*
X16693461Y12427757D01*
X16693462Y12427756D01*
X16750138Y12329590D01*
X16830291Y12249437D01*
X16928457Y12192761D01*
X16928459Y12192761D01*
X16928460Y12192760D01*
X16990222Y12176211D01*
X17037948Y12163423D01*
X17037951Y12163423D01*
X17151297Y12163423D01*
X17151300Y12163423D01*
X17260791Y12192761D01*
X17358957Y12249437D01*
X17439110Y12329590D01*
X17495786Y12427756D01*
X17525124Y12537247D01*
X17525124Y12650599D01*
X17495786Y12760090D01*
X17439110Y12858256D01*
X17358957Y12938409D01*
X17260791Y12995085D01*
X17260790Y12995086D01*
X17260787Y12995087D01*
X17151306Y13024422D01*
X17151302Y13024423D01*
X17151300Y13024423D01*
X17037948Y13024423D01*
X17037946Y13024423D01*
X17037941Y13024422D01*
X16928461Y12995087D01*
X16928460Y12995087D01*
X16830289Y12938408D01*
X16750139Y12858258D01*
X16693460Y12760087D01*
X16693460Y12760086D01*
X16664125Y12650606D01*
X16664124Y12650597D01*
X10985807Y12650597D01*
X11081946Y12706103D01*
X11162099Y12786256D01*
X11218775Y12884422D01*
X11248113Y12993913D01*
X11248113Y13107265D01*
X11218775Y13216756D01*
X11162099Y13314922D01*
X11081946Y13395075D01*
X10983780Y13451751D01*
X10983779Y13451752D01*
X10983776Y13451753D01*
X10874295Y13481088D01*
X10874291Y13481089D01*
X10874289Y13481089D01*
X10760937Y13481089D01*
X10760935Y13481089D01*
X10760930Y13481088D01*
X10651450Y13451753D01*
X10651449Y13451753D01*
X10553278Y13395074D01*
X10473128Y13314924D01*
X10416449Y13216753D01*
X10416449Y13216752D01*
X10387114Y13107272D01*
X10387113Y13107263D01*
X5273233Y13107263D01*
X5313658Y13177282D01*
X5342996Y13286773D01*
X5342996Y13400125D01*
X5313658Y13509616D01*
X5256982Y13607782D01*
X5176829Y13687935D01*
X5078663Y13744611D01*
X5078662Y13744612D01*
X5078659Y13744613D01*
X4969178Y13773948D01*
X4969174Y13773949D01*
X4969172Y13773949D01*
X4855820Y13773949D01*
X4855818Y13773949D01*
X4855813Y13773948D01*
X4746333Y13744613D01*
X4746332Y13744613D01*
X4648161Y13687934D01*
X4568011Y13607784D01*
X4511332Y13509613D01*
X4511332Y13509612D01*
X4481997Y13400132D01*
X4481996Y13400123D01*
X1819184Y13400123D01*
X1813167Y13414570D01*
X1783896Y13458283D01*
X1771757Y13470422D01*
X1767757Y13477010D01*
X1767703Y13477360D01*
X1767038Y13478226D01*
X1748917Y13509612D01*
X1716701Y13565411D01*
X1713475Y13571800D01*
X1709346Y13581261D01*
X1689269Y13613204D01*
X1662919Y13643815D01*
X1662908Y13643826D01*
X1179483Y14059742D01*
X1127971Y14104060D01*
X7360318Y14104060D01*
X7360318Y13990713D01*
X7360319Y13990704D01*
X7389654Y13881224D01*
X7389654Y13881223D01*
X7389655Y13881220D01*
X7389656Y13881219D01*
X7446332Y13783053D01*
X7526485Y13702900D01*
X7624651Y13646224D01*
X7624653Y13646224D01*
X7624654Y13646223D01*
X7691656Y13628270D01*
X7734142Y13616886D01*
X7734145Y13616886D01*
X7847491Y13616886D01*
X7847494Y13616886D01*
X7956985Y13646224D01*
X8055151Y13702900D01*
X8135304Y13783053D01*
X8191980Y13881219D01*
X8221318Y13990710D01*
X8221318Y14104062D01*
X8191980Y14213553D01*
X8135304Y14311719D01*
X8055151Y14391872D01*
X7956985Y14448548D01*
X7956984Y14448549D01*
X7956981Y14448550D01*
X7856659Y14475431D01*
X10400386Y14475431D01*
X10400386Y14362084D01*
X10400387Y14362075D01*
X10429722Y14252595D01*
X10429722Y14252594D01*
X10429723Y14252591D01*
X10429724Y14252590D01*
X10486400Y14154424D01*
X10566553Y14074271D01*
X10664719Y14017595D01*
X10664721Y14017595D01*
X10664722Y14017594D01*
X10731724Y13999641D01*
X10774210Y13988257D01*
X10774213Y13988257D01*
X10887559Y13988257D01*
X10887562Y13988257D01*
X10997053Y14017595D01*
X11095219Y14074271D01*
X11175372Y14154424D01*
X11232048Y14252590D01*
X11261386Y14362081D01*
X11261386Y14475433D01*
X11232048Y14584924D01*
X11175372Y14683090D01*
X11095219Y14763243D01*
X10997053Y14819919D01*
X10997052Y14819920D01*
X10997049Y14819921D01*
X10887568Y14849256D01*
X10887564Y14849257D01*
X10887562Y14849257D01*
X10774210Y14849257D01*
X10774208Y14849257D01*
X10774203Y14849256D01*
X10664723Y14819921D01*
X10664722Y14819921D01*
X10566551Y14763242D01*
X10486401Y14683092D01*
X10429722Y14584921D01*
X10429722Y14584920D01*
X10400387Y14475440D01*
X10400386Y14475431D01*
X7856659Y14475431D01*
X7847500Y14477885D01*
X7847496Y14477886D01*
X7847494Y14477886D01*
X7734142Y14477886D01*
X7734140Y14477886D01*
X7734135Y14477885D01*
X7624655Y14448550D01*
X7624654Y14448550D01*
X7526483Y14391871D01*
X7446333Y14311721D01*
X7389654Y14213550D01*
X7389654Y14213549D01*
X7360319Y14104069D01*
X7360318Y14104060D01*
X1127971Y14104060D01*
X686717Y14483694D01*
X645471Y14508020D01*
X645460Y14508025D01*
X603737Y14523503D01*
X603733Y14523504D01*
X574289Y14530806D01*
X574288Y14530806D01*
X564957Y14529577D01*
X560688Y14530721D01*
X556604Y14529029D01*
X537557Y14536919D01*
X517643Y14542254D01*
X515432Y14546083D01*
X511349Y14547774D01*
X503458Y14566824D01*
X493152Y14584676D01*
X492604Y14593029D01*
X492604Y14669177D01*
X4824768Y14669177D01*
X4824768Y14555830D01*
X4824769Y14555821D01*
X4854104Y14446341D01*
X4854104Y14446340D01*
X4854105Y14446337D01*
X4854106Y14446336D01*
X4910782Y14348170D01*
X4990935Y14268017D01*
X5089101Y14211341D01*
X5089103Y14211341D01*
X5089104Y14211340D01*
X5156106Y14193387D01*
X5198592Y14182003D01*
X5198595Y14182003D01*
X5311941Y14182003D01*
X5311944Y14182003D01*
X5421435Y14211341D01*
X5519601Y14268017D01*
X5599754Y14348170D01*
X5656430Y14446336D01*
X5685768Y14555827D01*
X5685768Y14669179D01*
X5656430Y14778670D01*
X5599754Y14876836D01*
X5519601Y14956989D01*
X5421435Y15013665D01*
X5421434Y15013666D01*
X5421431Y15013667D01*
X5311950Y15043002D01*
X5311946Y15043003D01*
X5311944Y15043003D01*
X5198592Y15043003D01*
X5198590Y15043003D01*
X5198585Y15043002D01*
X5089105Y15013667D01*
X5089104Y15013667D01*
X4990933Y14956988D01*
X4910783Y14876838D01*
X4854104Y14778667D01*
X4854104Y14778666D01*
X4824769Y14669186D01*
X4824768Y14669177D01*
X492604Y14669177D01*
X492604Y15184384D01*
X6648455Y15184384D01*
X6648455Y15071037D01*
X6648456Y15071028D01*
X6677791Y14961548D01*
X6677791Y14961547D01*
X6677792Y14961544D01*
X6677793Y14961543D01*
X6734469Y14863377D01*
X6814622Y14783224D01*
X6912788Y14726548D01*
X6912790Y14726548D01*
X6912791Y14726547D01*
X6979793Y14708594D01*
X7022279Y14697210D01*
X7022282Y14697210D01*
X7135628Y14697210D01*
X7135631Y14697210D01*
X7245122Y14726548D01*
X7343288Y14783224D01*
X7423441Y14863377D01*
X7480117Y14961543D01*
X7509455Y15071034D01*
X7509455Y15084957D01*
X17624329Y15084957D01*
X17624329Y14971610D01*
X17624330Y14971601D01*
X17653665Y14862121D01*
X17653665Y14862120D01*
X17653666Y14862117D01*
X17653667Y14862116D01*
X17710343Y14763950D01*
X17790496Y14683797D01*
X17888662Y14627121D01*
X17888664Y14627121D01*
X17888665Y14627120D01*
X17955667Y14609167D01*
X17998153Y14597783D01*
X17998156Y14597783D01*
X18111502Y14597783D01*
X18111505Y14597783D01*
X18220996Y14627121D01*
X18319162Y14683797D01*
X18399315Y14763950D01*
X18455991Y14862116D01*
X18485329Y14971607D01*
X18485329Y15084959D01*
X18455991Y15194450D01*
X18399315Y15292616D01*
X18319162Y15372769D01*
X18220996Y15429445D01*
X18220995Y15429446D01*
X18220992Y15429447D01*
X18111511Y15458782D01*
X18111507Y15458783D01*
X18111505Y15458783D01*
X17998153Y15458783D01*
X17998151Y15458783D01*
X17998146Y15458782D01*
X17888666Y15429447D01*
X17888665Y15429447D01*
X17790494Y15372768D01*
X17710344Y15292618D01*
X17653665Y15194447D01*
X17653665Y15194446D01*
X17624330Y15084966D01*
X17624329Y15084957D01*
X7509455Y15084957D01*
X7509455Y15184386D01*
X7480117Y15293877D01*
X7423441Y15392043D01*
X7343288Y15472196D01*
X7245122Y15528872D01*
X7245121Y15528873D01*
X7245118Y15528874D01*
X7135637Y15558209D01*
X7135633Y15558210D01*
X7135631Y15558210D01*
X7022279Y15558210D01*
X7022277Y15558210D01*
X7022272Y15558209D01*
X6912792Y15528874D01*
X6912791Y15528874D01*
X6814620Y15472195D01*
X6734470Y15392045D01*
X6677791Y15293874D01*
X6677791Y15293873D01*
X6648456Y15184393D01*
X6648455Y15184384D01*
X492604Y15184384D01*
X492604Y15783508D01*
X511349Y15828763D01*
X556604Y15847508D01*
X599625Y15829689D01*
X599857Y15829990D01*
X600983Y15829126D01*
X601859Y15828763D01*
X603187Y15827435D01*
X724157Y15757593D01*
X724159Y15757593D01*
X724160Y15757592D01*
X859079Y15721441D01*
X859080Y15721441D01*
X1004540Y15721441D01*
X1064029Y15737382D01*
X1139462Y15757593D01*
X1260432Y15827435D01*
X1264803Y15831806D01*
X10400386Y15831806D01*
X10400386Y15718459D01*
X10400387Y15718450D01*
X10429722Y15608970D01*
X10429722Y15608969D01*
X10429723Y15608966D01*
X10429724Y15608965D01*
X10486400Y15510799D01*
X10566553Y15430646D01*
X10664719Y15373970D01*
X10664721Y15373970D01*
X10664722Y15373969D01*
X10731724Y15356016D01*
X10774210Y15344632D01*
X10774213Y15344632D01*
X10887559Y15344632D01*
X10887562Y15344632D01*
X10997053Y15373970D01*
X11095219Y15430646D01*
X11175372Y15510799D01*
X11232048Y15608965D01*
X11261386Y15718456D01*
X11261386Y15831808D01*
X11232048Y15941299D01*
X11175372Y16039465D01*
X11095219Y16119618D01*
X10997053Y16176294D01*
X10997052Y16176295D01*
X10997049Y16176296D01*
X10887568Y16205631D01*
X10887564Y16205632D01*
X10887562Y16205632D01*
X10774210Y16205632D01*
X10774208Y16205632D01*
X10774203Y16205631D01*
X10664723Y16176296D01*
X10664722Y16176296D01*
X10566551Y16119617D01*
X10486401Y16039467D01*
X10429722Y15941296D01*
X10429722Y15941295D01*
X10400387Y15831815D01*
X10400386Y15831806D01*
X1264803Y15831806D01*
X1359203Y15926206D01*
X1429045Y16047176D01*
X1454423Y16141888D01*
X1465197Y16182098D01*
X1465197Y16223760D01*
X13446129Y16223760D01*
X13446129Y16110413D01*
X13446130Y16110404D01*
X13475465Y16000924D01*
X13475465Y16000923D01*
X13475466Y16000920D01*
X13475467Y16000919D01*
X13532143Y15902753D01*
X13612296Y15822600D01*
X13710462Y15765924D01*
X13710464Y15765924D01*
X13710465Y15765923D01*
X13741557Y15757592D01*
X13819953Y15736586D01*
X13819956Y15736586D01*
X13933302Y15736586D01*
X13933305Y15736586D01*
X14042796Y15765924D01*
X14140962Y15822600D01*
X14221115Y15902753D01*
X14277791Y16000919D01*
X14307129Y16110410D01*
X14307129Y16223762D01*
X14277791Y16333253D01*
X14221115Y16431419D01*
X14140962Y16511572D01*
X14042796Y16568248D01*
X14042795Y16568249D01*
X14042792Y16568250D01*
X13933311Y16597585D01*
X13933307Y16597586D01*
X13933305Y16597586D01*
X13819953Y16597586D01*
X13819951Y16597586D01*
X13819946Y16597585D01*
X13710466Y16568250D01*
X13710465Y16568250D01*
X13612294Y16511571D01*
X13532144Y16431421D01*
X13475465Y16333250D01*
X13475465Y16333249D01*
X13446130Y16223769D01*
X13446129Y16223760D01*
X1465197Y16223760D01*
X1465197Y16321785D01*
X1429045Y16456707D01*
X1428474Y16458086D01*
X1423604Y16482573D01*
X1423604Y17305251D01*
X2200774Y17305251D01*
X2200774Y17191904D01*
X2200775Y17191895D01*
X2230110Y17082415D01*
X2230110Y17082414D01*
X2230111Y17082411D01*
X2230112Y17082410D01*
X2286788Y16984244D01*
X2366941Y16904091D01*
X2465107Y16847415D01*
X2465109Y16847415D01*
X2465110Y16847414D01*
X2532112Y16829461D01*
X2574598Y16818077D01*
X2574601Y16818077D01*
X2687947Y16818077D01*
X2687950Y16818077D01*
X2797441Y16847415D01*
X2895607Y16904091D01*
X2975760Y16984244D01*
X3032436Y17082410D01*
X3061774Y17191901D01*
X3061774Y17305253D01*
X3061009Y17308108D01*
X3058520Y17317400D01*
X3055206Y17329767D01*
X4701771Y17329767D01*
X4701771Y17216420D01*
X4701772Y17216411D01*
X4731107Y17106931D01*
X4731107Y17106930D01*
X4731108Y17106927D01*
X4731109Y17106926D01*
X4787785Y17008760D01*
X4867938Y16928607D01*
X4966104Y16871931D01*
X4966106Y16871931D01*
X4966107Y16871930D01*
X5006123Y16861208D01*
X5075595Y16842593D01*
X5075598Y16842593D01*
X5188944Y16842593D01*
X5188947Y16842593D01*
X5298438Y16871931D01*
X5396604Y16928607D01*
X5476757Y17008760D01*
X5533433Y17106926D01*
X5558279Y17199651D01*
X7256409Y17199651D01*
X7256409Y17086304D01*
X7256410Y17086295D01*
X7285745Y16976815D01*
X7285745Y16976814D01*
X7285746Y16976811D01*
X7285747Y16976810D01*
X7342423Y16878644D01*
X7422576Y16798491D01*
X7520742Y16741815D01*
X7520744Y16741815D01*
X7520745Y16741814D01*
X7585814Y16724379D01*
X7630233Y16712477D01*
X7630236Y16712477D01*
X7743582Y16712477D01*
X7743585Y16712477D01*
X7853076Y16741815D01*
X7951242Y16798491D01*
X8031395Y16878644D01*
X8088071Y16976810D01*
X8117409Y17086301D01*
X8117409Y17198615D01*
X9820774Y17198615D01*
X9820774Y17085268D01*
X9820775Y17085259D01*
X9850110Y16975779D01*
X9850110Y16975778D01*
X9850111Y16975775D01*
X9850112Y16975774D01*
X9906788Y16877608D01*
X9986941Y16797455D01*
X10085107Y16740779D01*
X10085109Y16740779D01*
X10085110Y16740778D01*
X10093373Y16738564D01*
X10194598Y16711441D01*
X10194601Y16711441D01*
X10307947Y16711441D01*
X10307950Y16711441D01*
X10417441Y16740779D01*
X10482975Y16778615D01*
X12453574Y16778615D01*
X12453574Y16665268D01*
X12453575Y16665259D01*
X12482910Y16555779D01*
X12482910Y16555778D01*
X12482911Y16555775D01*
X12482912Y16555774D01*
X12539588Y16457608D01*
X12619741Y16377455D01*
X12717907Y16320779D01*
X12717909Y16320779D01*
X12717910Y16320778D01*
X12784912Y16302825D01*
X12827398Y16291441D01*
X12827401Y16291441D01*
X12940752Y16291441D01*
X13007756Y16309396D01*
X13050241Y16320779D01*
X13148407Y16377455D01*
X13228560Y16457608D01*
X13285236Y16555774D01*
X13314574Y16665265D01*
X13314574Y16773727D01*
X14366688Y16773727D01*
X14366688Y16660380D01*
X14366689Y16660371D01*
X14396024Y16550891D01*
X14396024Y16550890D01*
X14396025Y16550887D01*
X14396026Y16550886D01*
X14452702Y16452720D01*
X14532855Y16372567D01*
X14631021Y16315891D01*
X14631023Y16315891D01*
X14631024Y16315890D01*
X14698026Y16297937D01*
X14740512Y16286553D01*
X14740515Y16286553D01*
X14853861Y16286553D01*
X14853864Y16286553D01*
X14963355Y16315891D01*
X15061521Y16372567D01*
X15141674Y16452720D01*
X15187227Y16531621D01*
X15226086Y16561439D01*
X15274650Y16555046D01*
X15302126Y16519246D01*
X15302988Y16519602D01*
X15304319Y16516388D01*
X15304468Y16516194D01*
X15304593Y16515728D01*
X15304593Y16515727D01*
X15304594Y16515724D01*
X15304595Y16515723D01*
X15361271Y16417557D01*
X15441424Y16337404D01*
X15539590Y16280728D01*
X15539592Y16280728D01*
X15539593Y16280727D01*
X15606595Y16262774D01*
X15649081Y16251390D01*
X15649084Y16251390D01*
X15762430Y16251390D01*
X15762433Y16251390D01*
X15871924Y16280728D01*
X15970090Y16337404D01*
X16050243Y16417557D01*
X16106919Y16515723D01*
X16136257Y16625214D01*
X16136257Y16738566D01*
X16126835Y16773729D01*
X16121081Y16795206D01*
X16117767Y16807573D01*
X20273574Y16807573D01*
X20273574Y16694226D01*
X20273575Y16694217D01*
X20302910Y16584737D01*
X20302910Y16584736D01*
X20302911Y16584733D01*
X20302912Y16584732D01*
X20359588Y16486566D01*
X20439741Y16406413D01*
X20537907Y16349737D01*
X20537909Y16349737D01*
X20537910Y16349736D01*
X20583927Y16337406D01*
X20647398Y16320399D01*
X20647401Y16320399D01*
X20760747Y16320399D01*
X20760750Y16320399D01*
X20870241Y16349737D01*
X20968407Y16406413D01*
X21048560Y16486566D01*
X21105236Y16584732D01*
X21134574Y16694223D01*
X21134574Y16807575D01*
X21105236Y16917066D01*
X21048560Y17015232D01*
X20968407Y17095385D01*
X20870241Y17152061D01*
X20870240Y17152062D01*
X20870237Y17152063D01*
X20760756Y17181398D01*
X20760752Y17181399D01*
X20760750Y17181399D01*
X20647398Y17181399D01*
X20647396Y17181399D01*
X20647391Y17181398D01*
X20537911Y17152063D01*
X20537910Y17152063D01*
X20439739Y17095384D01*
X20359589Y17015234D01*
X20302910Y16917063D01*
X20302910Y16917062D01*
X20273575Y16807582D01*
X20273574Y16807573D01*
X16117767Y16807573D01*
X16106920Y16848053D01*
X16106920Y16848054D01*
X16106919Y16848055D01*
X16106919Y16848057D01*
X16050243Y16946223D01*
X15970090Y17026376D01*
X15871924Y17083052D01*
X15871923Y17083053D01*
X15871920Y17083054D01*
X15762439Y17112389D01*
X15762435Y17112390D01*
X15762433Y17112390D01*
X15649081Y17112390D01*
X15649079Y17112390D01*
X15649074Y17112389D01*
X15539594Y17083054D01*
X15539593Y17083054D01*
X15441422Y17026375D01*
X15361272Y16946225D01*
X15361271Y16946223D01*
X15322255Y16878644D01*
X15315719Y16867324D01*
X15276857Y16837505D01*
X15228293Y16843898D01*
X15200821Y16879700D01*
X15199957Y16879341D01*
X15198619Y16882570D01*
X15198474Y16882759D01*
X15198351Y16883217D01*
X15198350Y16883218D01*
X15198350Y16883220D01*
X15141674Y16981386D01*
X15061521Y17061539D01*
X14963355Y17118215D01*
X14963354Y17118216D01*
X14963351Y17118217D01*
X14853870Y17147552D01*
X14853866Y17147553D01*
X14853864Y17147553D01*
X14740512Y17147553D01*
X14740510Y17147553D01*
X14740505Y17147552D01*
X14631025Y17118217D01*
X14631024Y17118217D01*
X14532853Y17061538D01*
X14452703Y16981388D01*
X14396024Y16883217D01*
X14396024Y16883216D01*
X14366689Y16773736D01*
X14366688Y16773727D01*
X13314574Y16773727D01*
X13314574Y16778617D01*
X13285236Y16888108D01*
X13228560Y16986274D01*
X13148407Y17066427D01*
X13050241Y17123103D01*
X13050240Y17123104D01*
X13050237Y17123105D01*
X12940756Y17152440D01*
X12940752Y17152441D01*
X12940750Y17152441D01*
X12827398Y17152441D01*
X12827396Y17152441D01*
X12827391Y17152440D01*
X12717911Y17123105D01*
X12717910Y17123105D01*
X12619739Y17066426D01*
X12539589Y16986276D01*
X12482910Y16888105D01*
X12482910Y16888104D01*
X12453575Y16778624D01*
X12453574Y16778615D01*
X10482975Y16778615D01*
X10515607Y16797455D01*
X10595760Y16877608D01*
X10652436Y16975774D01*
X10681774Y17085265D01*
X10681774Y17198617D01*
X10652436Y17308108D01*
X10595760Y17406274D01*
X10515607Y17486427D01*
X10417441Y17543103D01*
X10417440Y17543104D01*
X10417437Y17543105D01*
X10307956Y17572440D01*
X10307952Y17572441D01*
X10307950Y17572441D01*
X10194598Y17572441D01*
X10194596Y17572441D01*
X10194591Y17572440D01*
X10085111Y17543105D01*
X10085110Y17543105D01*
X9986939Y17486426D01*
X9906789Y17406276D01*
X9850110Y17308105D01*
X9850110Y17308104D01*
X9820775Y17198624D01*
X9820774Y17198615D01*
X8117409Y17198615D01*
X8117409Y17199653D01*
X8088071Y17309144D01*
X8031395Y17407310D01*
X7951242Y17487463D01*
X7853076Y17544139D01*
X7853075Y17544140D01*
X7853072Y17544141D01*
X7743591Y17573476D01*
X7743587Y17573477D01*
X7743585Y17573477D01*
X7630233Y17573477D01*
X7630231Y17573477D01*
X7630226Y17573476D01*
X7520746Y17544141D01*
X7520745Y17544141D01*
X7422574Y17487462D01*
X7342424Y17407312D01*
X7285745Y17309141D01*
X7285745Y17309140D01*
X7256410Y17199660D01*
X7256409Y17199651D01*
X5558279Y17199651D01*
X5562771Y17216417D01*
X5562771Y17329769D01*
X5533433Y17439260D01*
X5476757Y17537426D01*
X5396604Y17617579D01*
X5298438Y17674255D01*
X5298437Y17674256D01*
X5298434Y17674257D01*
X5188953Y17703592D01*
X5188949Y17703593D01*
X5188947Y17703593D01*
X5075595Y17703593D01*
X5075593Y17703593D01*
X5075588Y17703592D01*
X4966108Y17674257D01*
X4966107Y17674257D01*
X4867936Y17617578D01*
X4787786Y17537428D01*
X4731107Y17439257D01*
X4731107Y17439256D01*
X4701772Y17329776D01*
X4701771Y17329767D01*
X3055206Y17329767D01*
X3032437Y17414740D01*
X3032437Y17414741D01*
X3032436Y17414742D01*
X3032436Y17414744D01*
X2975760Y17512910D01*
X2895607Y17593063D01*
X2797441Y17649739D01*
X2797440Y17649740D01*
X2797437Y17649741D01*
X2687956Y17679076D01*
X2687952Y17679077D01*
X2687950Y17679077D01*
X2574598Y17679077D01*
X2574596Y17679077D01*
X2574591Y17679076D01*
X2465111Y17649741D01*
X2465110Y17649741D01*
X2366939Y17593062D01*
X2286789Y17512912D01*
X2230110Y17414741D01*
X2230110Y17414740D01*
X2200775Y17305260D01*
X2200774Y17305251D01*
X1423604Y17305251D01*
X1423604Y18349919D01*
X1442349Y18395174D01*
X1514549Y18467374D01*
X15468999Y18467374D01*
X15468999Y18354027D01*
X15469000Y18354018D01*
X15498335Y18244538D01*
X15498335Y18244537D01*
X15498336Y18244534D01*
X15498337Y18244533D01*
X15555013Y18146367D01*
X15635166Y18066214D01*
X15733332Y18009538D01*
X15733334Y18009538D01*
X15733335Y18009537D01*
X15786622Y17995259D01*
X15842823Y17980200D01*
X15842826Y17980200D01*
X15956172Y17980200D01*
X15956175Y17980200D01*
X16065666Y18009538D01*
X16163832Y18066214D01*
X16206233Y18108615D01*
X19303574Y18108615D01*
X19303574Y17995268D01*
X19303575Y17995259D01*
X19332910Y17885779D01*
X19332910Y17885778D01*
X19332911Y17885775D01*
X19332912Y17885774D01*
X19389588Y17787608D01*
X19469741Y17707455D01*
X19567907Y17650779D01*
X19567909Y17650779D01*
X19567910Y17650778D01*
X19571788Y17649739D01*
X19677398Y17621441D01*
X19677401Y17621441D01*
X19790747Y17621441D01*
X19790750Y17621441D01*
X19900241Y17650779D01*
X19998407Y17707455D01*
X20078560Y17787608D01*
X20135236Y17885774D01*
X20164574Y17995265D01*
X20164574Y18108617D01*
X20135236Y18218108D01*
X20078560Y18316274D01*
X19998407Y18396427D01*
X19900241Y18453103D01*
X19900240Y18453104D01*
X19900237Y18453105D01*
X19790756Y18482440D01*
X19790752Y18482441D01*
X19790750Y18482441D01*
X19677398Y18482441D01*
X19677396Y18482441D01*
X19677391Y18482440D01*
X19567911Y18453105D01*
X19567910Y18453105D01*
X19469739Y18396426D01*
X19389589Y18316276D01*
X19332910Y18218105D01*
X19332910Y18218104D01*
X19303575Y18108624D01*
X19303574Y18108615D01*
X16206233Y18108615D01*
X16243985Y18146367D01*
X16300661Y18244533D01*
X16329999Y18354024D01*
X16329999Y18467376D01*
X16300661Y18576867D01*
X16243985Y18675033D01*
X16163832Y18755186D01*
X16065666Y18811862D01*
X16065665Y18811863D01*
X16065662Y18811864D01*
X15957278Y18840905D01*
X15957276Y18840905D01*
X15956175Y18841200D01*
X15842823Y18841200D01*
X15841722Y18840905D01*
X15841720Y18840905D01*
X15733336Y18811864D01*
X15733335Y18811864D01*
X15635164Y18755185D01*
X15555014Y18675035D01*
X15498335Y18576864D01*
X15498335Y18576863D01*
X15469000Y18467383D01*
X15468999Y18467374D01*
X1514549Y18467374D01*
X1997335Y18950160D01*
X2042590Y18968905D01*
X12751129Y18968905D01*
X12751132Y18968905D01*
X12751134Y18968906D01*
X12754570Y18969358D01*
X12762923Y18969905D01*
X12817343Y18969905D01*
X12895225Y18969905D01*
X12903578Y18969358D01*
G37*
%TD.AperFunction*%
%TD*%
M02*
